<svg width="14" height="13" viewBox="0 0 14 13" fill="none" xmlns="http://www.w3.org/2000/svg">
<g clip-path="url(#clip0_325_34003)">
<path fill-rule="evenodd" clip-rule="evenodd" d="M4.54845 2.61703C4.53304 2.32297 4.75893 2.0721 5.05299 2.05669L11.0769 1.74098C11.371 1.72557 11.6219 1.95146 11.6373 2.24553L11.953 8.26946C11.9684 8.56352 11.7425 8.8144 11.4484 8.82981C11.1544 8.84522 10.9035 8.61933 10.8881 8.32527L10.6398 3.58677L3.89008 11.083C3.69305 11.3019 3.35592 11.3195 3.13709 11.1225C2.91826 10.9255 2.90059 10.5883 3.09763 10.3695L9.8473 2.87324L5.1088 3.12158C4.81474 3.13699 4.56386 2.9111 4.54845 2.61703Z" fill="#9C9C9C"/>
</g>
<defs>
<clipPath id="clip0_325_34003">
<rect width="13" height="13" fill="white" transform="translate(0.799805)"/>
</clipPath>
</defs>
</svg>
