<svg width="20" height="21" viewBox="0 0 20 21" fill="none" xmlns="http://www.w3.org/2000/svg">
<path d="M7.9165 12.1665C9.29722 12.1665 10.4165 13.2858 10.4165 14.6665C10.4165 16.0472 9.29722 17.1665 7.9165 17.1665C6.53579 17.1665 5.4165 16.0472 5.4165 14.6665C5.4165 13.2858 6.53579 12.1665 7.9165 12.1665Z" stroke="#FBFBFB" stroke-width="1.5"/>
<path d="M12.0835 3.83348C10.7028 3.83348 9.5835 4.95276 9.5835 6.33348C9.5835 7.71419 10.7028 8.83348 12.0835 8.83348C13.4642 8.83348 14.5835 7.71419 14.5835 6.33348C14.5835 4.95276 13.4642 3.83348 12.0835 3.83348Z" stroke="#FBFBFB" stroke-width="1.5"/>
<path d="M12.5 14.6318L18.3333 14.6318" stroke="#FBFBFB" stroke-width="1.5" stroke-linecap="round"/>
<path d="M7.5 6.29883L1.66667 6.29883" stroke="#FBFBFB" stroke-width="1.5" stroke-linecap="round"/>
<path d="M1.6665 14.6318L3.33317 14.6318" stroke="#FBFBFB" stroke-width="1.5" stroke-linecap="round"/>
<path d="M18.3335 6.29883L16.6668 6.29883" stroke="#FBFBFB" stroke-width="1.5" stroke-linecap="round"/>
</svg>
