<svg width="20" height="20" viewBox="0 0 20 20" fill="none" xmlns="http://www.w3.org/2000/svg">
<path d="M2.35586 5.53806C2.1927 5.15733 1.75179 4.98097 1.37106 5.14414C0.990342 5.3073 0.813978 5.74821 0.977145 6.12894L2.35586 5.53806ZM12.9892 11.1074L12.7145 10.4095L12.9892 11.1074ZM7.63915 11.5165C7.86506 11.1693 7.76674 10.7047 7.41955 10.4788C7.07237 10.2529 6.60778 10.3512 6.38188 10.6984L7.63915 11.5165ZM5.20453 12.5078C4.97863 12.855 5.07694 13.3196 5.42413 13.5455C5.77132 13.7714 6.2359 13.6731 6.46181 13.3259L5.20453 12.5078ZM19.0225 6.12894C19.1857 5.74821 19.0093 5.3073 18.6286 5.14414C18.2479 4.98097 17.807 5.15733 17.6438 5.53806L19.0225 6.12894ZM15.8332 9.27419L15.3199 8.72735V8.72735L15.8332 9.27419ZM16.5528 11.0545C16.8457 11.3474 17.3206 11.3474 17.6135 11.0545C17.9064 10.7616 17.9064 10.2868 17.6135 9.99386L16.5528 11.0545ZM9.24984 13.7502C9.24984 14.1644 9.58562 14.5002 9.99984 14.5002C10.4141 14.5002 10.7498 14.1644 10.7498 13.7502H9.24984ZM13.5379 13.3259C13.7638 13.6731 14.2284 13.7714 14.5755 13.5455C14.9227 13.3196 15.021 12.855 14.7951 12.5078L13.5379 13.3259ZM4.69683 9.80452C4.98973 9.51163 4.98973 9.03676 4.69683 8.74386C4.40394 8.45097 3.92907 8.45097 3.63617 8.74386L4.69683 9.80452ZM2.38617 9.99386C2.09328 10.2868 2.09328 10.7616 2.38617 11.0545C2.67907 11.3474 3.15394 11.3474 3.44683 11.0545L2.38617 9.99386ZM9.99984 10.9168C7.35928 10.9168 5.46116 9.6031 4.19527 8.23982C3.56254 7.55843 3.09829 6.87467 2.79274 6.36134C2.64039 6.10539 2.52866 5.89378 2.45614 5.74874C2.41991 5.67627 2.39355 5.6206 2.37688 5.58451C2.36855 5.56647 2.36264 5.55334 2.35915 5.54548C2.3574 5.54155 2.35625 5.53893 2.35571 5.53768C2.35543 5.53706 2.35531 5.53677 2.35534 5.53683C2.35535 5.53686 2.3554 5.53698 2.35549 5.53718C2.35553 5.53728 2.35563 5.5375 2.35565 5.53755C2.35575 5.53779 2.35586 5.53806 1.6665 5.8335C0.977145 6.12894 0.977277 6.12924 0.977418 6.12957C0.977478 6.12971 0.977629 6.13006 0.97775 6.13034C0.97799 6.1309 0.97827 6.13155 0.978588 6.13229C0.979226 6.13376 0.980019 6.13559 0.98097 6.13777C0.982871 6.14212 0.9854 6.14787 0.98856 6.15498C0.99488 6.16919 1.00373 6.18882 1.01513 6.21351C1.03793 6.26287 1.07098 6.33252 1.1145 6.41956C1.20148 6.59352 1.33064 6.83765 1.50381 7.12857C1.8493 7.70899 2.37464 8.48357 3.09608 9.2605C4.53851 10.8139 6.80706 12.4168 9.99984 12.4168V10.9168ZM12.7145 10.4095C11.9197 10.7223 11.0182 10.9168 9.99984 10.9168V12.4168C11.2147 12.4168 12.3022 12.1838 13.2639 11.8053L12.7145 10.4095ZM6.38188 10.6984L5.20453 12.5078L6.46181 13.3259L7.63915 11.5165L6.38188 10.6984ZM18.3332 5.8335C17.6438 5.53806 17.6439 5.5379 17.6439 5.53776C17.644 5.53772 17.644 5.53758 17.6441 5.5375C17.6441 5.53734 17.6442 5.53721 17.6442 5.53711C17.6443 5.53691 17.6443 5.53681 17.6443 5.53682C17.6443 5.53685 17.6441 5.53731 17.6437 5.53819C17.643 5.53996 17.6414 5.54344 17.6392 5.54855C17.6346 5.55877 17.627 5.57555 17.6164 5.59838C17.5951 5.64407 17.5616 5.71389 17.5157 5.80393C17.4237 5.98417 17.2825 6.24439 17.0899 6.55339C16.7035 7.17357 16.1179 7.97834 15.3199 8.72735L16.3465 9.82104C17.264 8.95986 17.9283 8.04428 18.363 7.34665C18.581 6.99676 18.7431 6.69871 18.8519 6.48542C18.9063 6.37868 18.9476 6.29292 18.9759 6.23221C18.99 6.20185 19.001 6.17772 19.0087 6.16035C19.0126 6.15166 19.0157 6.14465 19.018 6.1394C19.0191 6.13677 19.0201 6.13458 19.0208 6.13283C19.0212 6.13196 19.0216 6.1312 19.0218 6.13055C19.022 6.13022 19.0221 6.12993 19.0222 6.12966C19.0223 6.12952 19.0224 6.12934 19.0224 6.12928C19.0225 6.1291 19.0225 6.12894 18.3332 5.8335ZM15.3199 8.72735C14.613 9.39081 13.7479 10.0027 12.7145 10.4095L13.2639 11.8053C14.5095 11.315 15.5319 10.5856 16.3465 9.82104L15.3199 8.72735ZM15.3028 9.80452L16.5528 11.0545L17.6135 9.99386L16.3635 8.74386L15.3028 9.80452ZM9.24984 11.6668V13.7502H10.7498V11.6668H9.24984ZM12.3605 11.5165L13.5379 13.3259L14.7951 12.5078L13.6178 10.6984L12.3605 11.5165ZM3.63617 8.74386L2.38617 9.99386L3.44683 11.0545L4.69683 9.80452L3.63617 8.74386Z" fill="#FBFBFB"/>
</svg>
