<svg width="42" height="40" viewBox="0 0 42 40" fill="none" xmlns="http://www.w3.org/2000/svg">
<rect x="0.5" y="0.5" width="41" height="39" rx="5.5" fill="#202020"/>
<rect x="0.5" y="0.5" width="41" height="39" rx="5.5" stroke="#262626"/>
<path d="M26.8334 12.5H15.1667C13.9882 12.5 13.399 12.5 13.0329 12.8435C12.6667 13.187 12.6667 13.7398 12.6667 14.8456V15.4204C12.6667 16.2853 12.6667 16.7177 12.8831 17.0762C13.0994 17.4347 13.4946 17.6571 14.2851 18.1021L16.7126 19.4687C17.243 19.7672 17.5081 19.9165 17.698 20.0813C18.0934 20.4246 18.3368 20.8279 18.4471 21.3226C18.5001 21.5602 18.5001 21.8382 18.5001 22.3941L18.5001 24.6187C18.5001 25.3766 18.5001 25.7556 18.71 26.0511C18.92 26.3465 19.2928 26.4923 20.0385 26.7838C21.6041 27.3958 22.3868 27.7018 22.9435 27.3537C23.5001 27.0055 23.5001 26.2099 23.5001 24.6187V22.3941C23.5001 21.8382 23.5001 21.5602 23.553 21.3226C23.6633 20.8279 23.9068 20.4246 24.3022 20.0813C24.492 19.9165 24.7572 19.7672 25.2875 19.4687L27.7151 18.1021C28.5055 17.6571 28.9007 17.4347 29.1171 17.0762C29.3334 16.7177 29.3334 16.2853 29.3334 15.4204V14.8456C29.3334 13.7398 29.3334 13.187 28.9673 12.8435C28.6012 12.5 28.0119 12.5 26.8334 12.5Z" stroke="#9C9C9C" stroke-width="1.5"/>
</svg>
