<svg width="32" height="32" viewBox="0 0 32 32" fill="none" xmlns="http://www.w3.org/2000/svg">
<path d="M25.3337 4H6.66699C4.78137 4 3.83856 4 3.25278 4.5496C2.66699 5.09919 2.66699 5.98376 2.66699 7.75288V8.67264C2.66699 10.0564 2.66699 10.7483 3.01313 11.3219C3.35926 11.8955 3.99162 12.2514 5.25635 12.9634L9.14038 15.1498C9.98894 15.6275 10.4132 15.8664 10.717 16.1301C11.3496 16.6793 11.7391 17.3247 11.9156 18.1162C12.0003 18.4963 12.0003 18.9411 12.0003 19.8306L12.0003 23.3899C12.0003 24.6026 12.0003 25.209 12.3362 25.6817C12.6721 26.1544 13.2687 26.3876 14.4619 26.8541C16.9667 27.8333 18.2191 28.3229 19.1097 27.7658C20.0003 27.2088 20.0003 25.9358 20.0003 23.3899V19.8306C20.0003 18.9411 20.0003 18.4963 20.0851 18.1162C20.2616 17.3247 20.651 16.6793 21.2836 16.1301C21.5874 15.8664 22.0117 15.6275 22.8603 15.1498L26.7443 12.9634C28.009 12.2514 28.6414 11.8955 28.9875 11.3219C29.3337 10.7483 29.3337 10.0564 29.3337 8.67264V7.75288C29.3337 5.98376 29.3337 5.09919 28.7479 4.5496C28.1621 4 27.2193 4 25.3337 4Z" stroke="white" stroke-width="2"/>
</svg>
