<svg width="279" height="56" viewBox="0 0 279 56" fill="none" xmlns="http://www.w3.org/2000/svg">
<rect x="65" y="18" width="214" height="13" fill="url(#paint0_linear_2628_81536)"/>
<rect x="65" y="35" width="214" height="4" fill="url(#paint1_linear_2628_81536)"/>
<rect x="0.5" y="0.5" width="55" height="55" rx="7.5" fill="url(#paint2_linear_2628_81536)" stroke="#323232"/>
<path d="M34.2819 18.002C35.3128 18.002 36.3436 18.002 37.3521 18.002C40.4894 18.0244 43.6268 18.0692 46.7418 18.0692C47.7278 18.0692 47.9071 18.5174 47.8398 19.3914C47.5933 22.0133 46.316 23.5372 43.694 23.8957C41.9685 24.1198 40.1981 24.075 38.4501 24.075C38.2036 24.075 37.7554 23.8061 37.7106 23.6044C37.1952 21.3858 36.1643 19.5034 34.2819 18.002Z" fill="#EE2E22"/>
<path d="M10.6172 25.3298C13.396 25.3298 15.9507 25.3074 18.5055 25.3522C18.752 25.3522 19.1778 25.8228 19.2002 26.0693C19.2674 27.638 19.2674 29.2067 19.1778 30.7754C19.1553 31.0667 18.6847 31.5373 18.4158 31.5373C17.004 31.5373 15.5698 31.5373 14.1804 31.3356C12.5221 31.0891 11.424 30.0135 11.043 28.3776C10.7965 27.3243 10.7293 26.2038 10.6172 25.3298Z" fill="#EE2E22"/>
<path d="M45.4421 25.1729C46.1816 28.4671 44.5905 30.9546 41.3859 31.358C39.6603 31.5596 37.89 31.5148 36.142 31.5596C35.8955 31.5596 35.6714 31.4476 35.2904 31.3355C35.7835 30.7305 36.3213 30.2599 36.5678 29.6772C37.0384 28.6015 37.2849 27.4138 37.7107 26.3158C37.8452 25.9572 38.2709 25.4642 38.5847 25.4418C39.7276 25.3745 40.8929 25.5314 42.0358 25.4866C43.1787 25.4418 44.2992 25.2849 45.4421 25.1729Z" fill="#EE2E22"/>
<path d="M13.015 32.7702C14.8974 32.7702 16.7126 32.7478 18.5054 32.815C18.7519 32.815 19.2001 33.3304 19.1777 33.5769C19.1105 35.1008 18.9984 36.6247 18.7743 38.1261C18.7295 38.4623 18.1917 38.9329 17.8555 38.9553C14.5837 39.1794 12.0514 35.7955 13.015 32.7702Z" fill="#EE2E22"/>
<path d="M43.2685 32.8594C40.9603 32.8594 38.7417 32.837 36.5007 32.8594C35.2458 32.8594 34.2597 32.4112 33.4978 31.0891C33.7667 30.865 34.0356 30.6857 34.2821 30.4616C37.1058 27.8396 37.173 22.8871 34.3942 20.2203C32.7359 18.5844 30.6293 18.0017 28.3884 17.9569C22.0688 17.8897 15.7716 17.9345 9.4745 17.9121C8.66774 17.9121 8.44364 18.2483 8.44364 18.9878C8.39883 21.9459 10.3037 23.9628 13.4858 24.1196C15.4131 24.2317 17.3627 24.1644 19.3124 24.142C20.0743 24.1196 20.4105 24.4109 20.3881 25.1729C20.2312 29.5204 20.0967 33.8903 19.9623 38.2378C19.9623 38.4395 20.0071 38.6636 20.0295 38.9997C21.7102 38.9997 23.3462 38.9997 24.9821 38.9997C26.5956 38.9773 26.5956 38.9773 26.5956 37.319C26.5956 35.8623 26.5956 34.3833 26.5956 32.9267C26.7076 32.9043 26.8197 32.8594 26.9317 32.837C27.2455 33.1732 27.5816 33.5317 27.8729 33.8903C28.7245 34.9211 29.4864 36.064 30.4501 36.9828C31.2568 37.7448 32.2653 38.7084 33.2513 38.798C35.4474 39.0221 37.7332 39.0221 39.907 38.6412C42.5738 38.1706 44.0528 35.1676 43.2685 32.8594ZM29.1951 27.4139C28.971 27.5483 28.7693 27.638 28.5676 27.7052C28.2763 27.8172 28.0298 27.8621 27.8057 27.8621C26.9765 27.8621 26.5956 27.1001 26.618 25.5538C26.618 25.4866 26.5956 25.397 26.618 25.3297C26.8197 24.7247 26.1026 23.7162 27.2903 23.537C28.5228 23.3353 29.845 24.0524 30.1363 25.016C30.4501 25.9796 30.0915 26.8984 29.1951 27.4139Z" fill="#EE2E22"/>
<defs>
<linearGradient id="paint0_linear_2628_81536" x1="279" y1="24.4999" x2="65" y2="24.4999" gradientUnits="userSpaceOnUse">
<stop stop-color="#1B1B1B"/>
<stop offset="1" stop-color="#2C2C2C"/>
</linearGradient>
<linearGradient id="paint1_linear_2628_81536" x1="279" y1="37" x2="65" y2="37" gradientUnits="userSpaceOnUse">
<stop stop-color="#1B1B1B"/>
<stop offset="1" stop-color="#2C2C2C"/>
</linearGradient>
<linearGradient id="paint2_linear_2628_81536" x1="28" y1="0" x2="28" y2="56" gradientUnits="userSpaceOnUse">
<stop stop-color="#202020"/>
<stop offset="1" stop-color="#1B1B1B"/>
</linearGradient>
</defs>
</svg>
