<svg width="20" height="20" viewBox="0 0 20 20" fill="none" xmlns="http://www.w3.org/2000/svg">
<path fill-rule="evenodd" clip-rule="evenodd" d="M8.28628 1.04199L8.33329 1.04199C8.67847 1.04199 8.95829 1.32181 8.95829 1.66699C8.95829 2.01217 8.67847 2.29199 8.33329 2.29199C6.74428 2.29199 5.61539 2.29332 4.759 2.40846C3.92059 2.52118 3.43755 2.73257 3.08488 3.08525C2.7322 3.43792 2.52081 3.92096 2.40809 4.75937C2.29295 5.61575 2.29163 6.74464 2.29163 8.33366C2.29163 8.67884 2.0118 8.95866 1.66663 8.95866C1.32145 8.95866 1.04163 8.67884 1.04163 8.33366L1.04163 8.28664C1.04161 6.75518 1.0416 5.54215 1.16924 4.59281C1.3006 3.61579 1.57736 2.825 2.201 2.20136C2.82463 1.57773 3.61542 1.30096 4.59244 1.1696C5.54179 1.04197 6.75481 1.04198 8.28628 1.04199ZM15.2409 2.40846C14.3845 2.29332 13.2556 2.29199 11.6666 2.29199C11.3214 2.29199 11.0416 2.01217 11.0416 1.66699C11.0416 1.32181 11.3214 1.04199 11.6666 1.04199L11.7136 1.04199C13.2451 1.04198 14.4581 1.04197 15.4075 1.1696C16.3845 1.30096 17.1753 1.57773 17.7989 2.20136C18.4226 2.825 18.6993 3.61579 18.8307 4.59281C18.9583 5.54215 18.9583 6.75518 18.9583 8.28665V8.33366C18.9583 8.67884 18.6785 8.95866 18.3333 8.95866C17.9881 8.95866 17.7083 8.67884 17.7083 8.33366C17.7083 6.74464 17.707 5.61575 17.5918 4.75937C17.4791 3.92096 17.2677 3.43792 16.915 3.08525C16.5624 2.73257 16.0793 2.52118 15.2409 2.40846ZM1.66663 11.042C2.0118 11.042 2.29163 11.3218 2.29163 11.667C2.29163 13.256 2.29295 14.3849 2.40809 15.2413C2.52081 16.0797 2.7322 16.5627 3.08488 16.9154C3.43755 17.2681 3.92059 17.4795 4.759 17.5922C5.61539 17.7073 6.74428 17.7087 8.33329 17.7087C8.67847 17.7087 8.95829 17.9885 8.95829 18.3337C8.95829 18.6788 8.67847 18.9587 8.33329 18.9587H8.28628C6.75482 18.9587 5.54179 18.9587 4.59244 18.831C3.61542 18.6997 2.82463 18.4229 2.201 17.7993C1.57736 17.1757 1.3006 16.3849 1.16924 15.4078C1.0416 14.4585 1.04161 13.2455 1.04163 11.714L1.04163 11.667C1.04163 11.3218 1.32145 11.042 1.66663 11.042ZM18.3333 11.042C18.6785 11.042 18.9583 11.3218 18.9583 11.667V11.714C18.9583 13.2455 18.9583 14.4585 18.8307 15.4078C18.6993 16.3849 18.4226 17.1757 17.7989 17.7993C17.1753 18.4229 16.3845 18.6997 15.4075 18.831C14.4581 18.9587 13.2451 18.9587 11.7136 18.9587H11.6666C11.3214 18.9587 11.0416 18.6788 11.0416 18.3337C11.0416 17.9885 11.3214 17.7087 11.6666 17.7087C13.2556 17.7087 14.3845 17.7073 15.2409 17.5922C16.0793 17.4795 16.5624 17.2681 16.915 16.9154C17.2677 16.5627 17.4791 16.0797 17.5918 15.2413C17.707 14.3849 17.7083 13.256 17.7083 11.667C17.7083 11.3218 17.9881 11.042 18.3333 11.042Z" fill="white"/>
</svg>
