<svg width="20" height="20" viewBox="0 0 20 20" fill="none" xmlns="http://www.w3.org/2000/svg">
<path d="M18.3334 10.0003C18.3334 11.0947 18.1179 12.1783 17.6991 13.1894C17.2803 14.2004 16.6665 15.1191 15.8926 15.8929C15.1188 16.6667 14.2002 17.2805 13.1891 17.6993C12.1781 18.1181 11.0944 18.3337 10.0001 18.3337C8.90573 18.3337 7.8221 18.1181 6.81105 17.6993C5.80001 17.2805 4.88135 16.6667 4.10752 15.8929C3.3337 15.1191 2.71987 14.2004 2.30109 13.1894C1.8823 12.1783 1.66675 11.0947 1.66675 10.0003C1.66675 8.90598 1.8823 7.82234 2.30109 6.8113C2.71987 5.80025 3.3337 4.88159 4.10753 4.10777C4.88135 3.33395 5.80001 2.72012 6.81105 2.30133C7.8221 1.88254 8.90573 1.66699 10.0001 1.66699C11.0944 1.66699 12.1781 1.88254 13.1891 2.30133C14.2002 2.72012 15.1188 3.33395 15.8926 4.10777C16.6665 4.88159 17.2803 5.80025 17.6991 6.8113C18.1179 7.82234 18.3334 8.90598 18.3334 10.0003L18.3334 10.0003Z" stroke="#FBFBFB"/>
<path d="M13.3334 10.0003C13.3334 11.0947 13.2472 12.1783 13.0797 13.1894C12.9122 14.2004 12.6666 15.1191 12.3571 15.8929C12.0476 16.6667 11.6801 17.2805 11.2757 17.6993C10.8713 18.1181 10.4378 18.3337 10.0001 18.3337C9.56234 18.3337 9.12889 18.1181 8.72447 17.6993C8.32005 17.2805 7.95259 16.6667 7.64306 15.8929C7.33353 15.1191 7.088 14.2004 6.92048 13.1894C6.75297 12.1783 6.66675 11.0947 6.66675 10.0003C6.66675 8.90598 6.75297 7.82234 6.92048 6.8113C7.088 5.80025 7.33353 4.88159 7.64306 4.10777C7.95259 3.33395 8.32005 2.72012 8.72447 2.30133C9.12889 1.88254 9.56234 1.66699 10.0001 1.66699C10.4378 1.66699 10.8713 1.88254 11.2757 2.30133C11.6801 2.72012 12.0476 3.33395 12.3571 4.10777C12.6666 4.88159 12.9122 5.80025 13.0797 6.8113C13.2472 7.82234 13.3334 8.90598 13.3334 10.0003L13.3334 10.0003Z" stroke="#FBFBFB"/>
<path d="M1.66675 10H18.3334" stroke="#FBFBFB" stroke-linecap="round"/>
</svg>
