<svg width="502" height="56" viewBox="0 0 502 56" fill="none" xmlns="http://www.w3.org/2000/svg">
<rect y="17.5" width="215" height="13" fill="url(#paint0_linear_1073_53506)"/>
<rect y="34.5" width="215" height="4" fill="url(#paint1_linear_1073_53506)"/>
<rect x="223.5" y="0.5" width="55" height="55" rx="7.5" fill="url(#paint2_linear_1073_53506)" stroke="#323232"/>
<path d="M257.282 18.002C258.313 18.002 259.344 18.002 260.352 18.002C263.489 18.0244 266.627 18.0692 269.742 18.0692C270.728 18.0692 270.907 18.5174 270.84 19.3914C270.593 22.0133 269.316 23.5372 266.694 23.8957C264.968 24.1198 263.198 24.075 261.45 24.075C261.204 24.075 260.755 23.8061 260.711 23.6044C260.195 21.3858 259.164 19.5034 257.282 18.002Z" fill="#EE2E22"/>
<path d="M233.617 25.3298C236.396 25.3298 238.951 25.3074 241.505 25.3522C241.752 25.3522 242.178 25.8228 242.2 26.0693C242.267 27.638 242.267 29.2067 242.178 30.7754C242.155 31.0667 241.685 31.5373 241.416 31.5373C240.004 31.5373 238.57 31.5373 237.18 31.3356C235.522 31.0891 234.424 30.0135 234.043 28.3776C233.797 27.3243 233.729 26.2038 233.617 25.3298Z" fill="#EE2E22"/>
<path d="M268.442 25.1729C269.182 28.4671 267.59 30.9546 264.386 31.358C262.66 31.5596 260.89 31.5148 259.142 31.5596C258.895 31.5596 258.671 31.4476 258.29 31.3355C258.783 30.7305 259.321 30.2599 259.568 29.6772C260.038 28.6015 260.285 27.4138 260.711 26.3158C260.845 25.9572 261.271 25.4642 261.585 25.4418C262.728 25.3745 263.893 25.5314 265.036 25.4866C266.179 25.4418 267.299 25.2849 268.442 25.1729Z" fill="#EE2E22"/>
<path d="M236.015 32.7702C237.897 32.7702 239.713 32.7478 241.505 32.815C241.752 32.815 242.2 33.3304 242.178 33.5769C242.11 35.1008 241.998 36.6247 241.774 38.1261C241.729 38.4623 241.192 38.9329 240.856 38.9553C237.584 39.1794 235.051 35.7955 236.015 32.7702Z" fill="#EE2E22"/>
<path d="M266.268 32.8594C263.96 32.8594 261.742 32.837 259.501 32.8594C258.246 32.8594 257.26 32.4112 256.498 31.0891C256.767 30.865 257.036 30.6857 257.282 30.4616C260.106 27.8396 260.173 22.8871 257.394 20.2203C255.736 18.5844 253.629 18.0017 251.388 17.9569C245.069 17.8897 238.772 17.9345 232.474 17.9121C231.668 17.9121 231.444 18.2483 231.444 18.9878C231.399 21.9459 233.304 23.9628 236.486 24.1196C238.413 24.2317 240.363 24.1644 242.312 24.142C243.074 24.1196 243.41 24.4109 243.388 25.1729C243.231 29.5204 243.097 33.8903 242.962 38.2378C242.962 38.4395 243.007 38.6636 243.03 38.9997C244.71 38.9997 246.346 38.9997 247.982 38.9997C249.596 38.9773 249.596 38.9773 249.596 37.319C249.596 35.8623 249.596 34.3833 249.596 32.9267C249.708 32.9043 249.82 32.8594 249.932 32.837C250.245 33.1732 250.582 33.5317 250.873 33.8903C251.725 34.9211 252.486 36.064 253.45 36.9828C254.257 37.7448 255.265 38.7084 256.251 38.798C258.447 39.0221 260.733 39.0221 262.907 38.6412C265.574 38.1706 267.053 35.1676 266.268 32.8594ZM252.195 27.4139C251.971 27.5483 251.769 27.638 251.568 27.7052C251.276 27.8172 251.03 27.8621 250.806 27.8621C249.977 27.8621 249.596 27.1001 249.618 25.5538C249.618 25.4866 249.596 25.397 249.618 25.3297C249.82 24.7247 249.103 23.7162 250.29 23.537C251.523 23.3353 252.845 24.0524 253.136 25.016C253.45 25.9796 253.092 26.8984 252.195 27.4139Z" fill="#EE2E22"/>
<rect x="287.487" y="17.5" width="214" height="13" fill="url(#paint3_linear_1073_53506)"/>
<rect x="287" y="34.5" width="214" height="4" fill="url(#paint4_linear_1073_53506)"/>
<defs>
<linearGradient id="paint0_linear_1073_53506" x1="215" y1="23.9999" x2="0" y2="23.9999" gradientUnits="userSpaceOnUse">
<stop stop-color="#262626"/>
<stop offset="1" stop-color="#181818"/>
</linearGradient>
<linearGradient id="paint1_linear_1073_53506" x1="215" y1="36.5" x2="0" y2="36.5" gradientUnits="userSpaceOnUse">
<stop stop-color="#262626"/>
<stop offset="1" stop-color="#181818"/>
</linearGradient>
<linearGradient id="paint2_linear_1073_53506" x1="251" y1="0" x2="251" y2="56" gradientUnits="userSpaceOnUse">
<stop stop-color="#202020"/>
<stop offset="1" stop-color="#1B1B1B"/>
</linearGradient>
<linearGradient id="paint3_linear_1073_53506" x1="501.487" y1="23.9999" x2="287.487" y2="23.9999" gradientUnits="userSpaceOnUse">
<stop stop-color="#181818"/>
<stop offset="1" stop-color="#262626"/>
</linearGradient>
<linearGradient id="paint4_linear_1073_53506" x1="501" y1="36.5" x2="287" y2="36.5" gradientUnits="userSpaceOnUse">
<stop stop-color="#181818"/>
<stop offset="1" stop-color="#262626"/>
</linearGradient>
</defs>
</svg>
