<svg width="20" height="20" viewBox="0 0 20 20" fill="none" xmlns="http://www.w3.org/2000/svg">
<path d="M1.66675 4.99984C1.66675 3.42849 1.66675 2.64281 2.1549 2.15466C2.64306 1.6665 3.42873 1.6665 5.00008 1.6665C6.57143 1.6665 7.3571 1.6665 7.84526 2.15466C8.33341 2.64281 8.33341 3.42849 8.33341 4.99984V14.9998C8.33341 16.5712 8.33341 17.3569 7.84526 17.845C7.3571 18.3332 6.57143 18.3332 5.00008 18.3332C3.42873 18.3332 2.64306 18.3332 2.1549 17.845C1.66675 17.3569 1.66675 16.5712 1.66675 14.9998V4.99984Z" fill="#FBFBFB"/>
<path d="M11.6667 4.99984C11.6667 3.42849 11.6667 2.64281 12.1549 2.15466C12.6431 1.6665 13.4287 1.6665 15.0001 1.6665C16.5714 1.6665 17.3571 1.6665 17.8453 2.15466C18.3334 2.64281 18.3334 3.42849 18.3334 4.99984V14.9998C18.3334 16.5712 18.3334 17.3569 17.8453 17.845C17.3571 18.3332 16.5714 18.3332 15.0001 18.3332C13.4287 18.3332 12.6431 18.3332 12.1549 17.845C11.6667 17.3569 11.6667 16.5712 11.6667 14.9998V4.99984Z" fill="#FBFBFB"/>
</svg>
