<svg width="10" height="12" viewBox="0 0 10 12" fill="none" xmlns="http://www.w3.org/2000/svg">
<path d="M4.99992 6.00033C4.35825 6.00033 3.83325 5.47533 3.83325 4.83366C3.83325 4.19199 4.35825 3.66699 4.99992 3.66699C5.64159 3.66699 6.16659 4.19199 6.16659 4.83366C6.16659 5.47533 5.64159 6.00033 4.99992 6.00033ZM8.49992 4.95033C8.49992 2.83283 6.95409 1.33366 4.99992 1.33366C3.04575 1.33366 1.49992 2.83283 1.49992 4.95033C1.49992 6.31533 2.63742 8.12366 4.99992 10.282C7.36242 8.12366 8.49992 6.31533 8.49992 4.95033ZM4.99992 0.166992C7.44992 0.166992 9.66659 2.04533 9.66659 4.95033C9.66659 6.88699 8.10909 9.17949 4.99992 11.8337C1.89075 9.17949 0.333252 6.88699 0.333252 4.95033C0.333252 2.04533 2.54992 0.166992 4.99992 0.166992Z" fill="#9C9C9C"/>
</svg>
