<svg width="32" height="32" viewBox="0 0 32 32" fill="none" xmlns="http://www.w3.org/2000/svg">
<path d="M4 13.889C4 9.62557 4 7.49385 4.50335 6.77669C5.00671 6.05953 7.0111 5.37342 11.0199 4.0012L11.7836 3.73976C13.8733 3.02446 14.9181 2.66681 16 2.66681C17.0819 2.66681 18.1267 3.02446 20.2164 3.73977L20.9801 4.0012C24.9889 5.37342 26.9933 6.05953 27.4966 6.77669C28 7.49385 28 9.62557 28 13.889C28 14.533 28 15.2314 28 15.9886C28 23.5061 22.348 27.1541 18.8019 28.7032C17.84 29.1234 17.359 29.3335 16 29.3335C14.641 29.3335 14.16 29.1234 13.1981 28.7032C9.65195 27.1541 4 23.5061 4 15.9886C4 15.2314 4 14.533 4 13.889Z" stroke="#FBFBFB" stroke-width="1.5"/>
<path d="M15.3333 21.3335H16.6667C17.403 21.3335 18 20.7365 18 20.0001V18.1317C19.1956 17.4401 20 16.1474 20 14.6668C20 12.4577 18.2091 10.6668 16 10.6668C13.7909 10.6668 12 12.4577 12 14.6668C12 16.1474 12.8044 17.4401 14 18.1317V20.0001C14 20.7365 14.597 21.3335 15.3333 21.3335Z" stroke="#FBFBFB" stroke-width="1.5" stroke-linejoin="round"/>
</svg>
