<svg width="48" height="48" viewBox="0 0 48 48" fill="none" xmlns="http://www.w3.org/2000/svg">
<g opacity="0.2" filter="url(#filter0_f_777_110542)">
<circle cx="24" cy="24" r="21" fill="url(#paint0_radial_777_110542)"/>
</g>
<circle opacity="0.72" cx="24" cy="24" r="15" fill="#EE2E22"/>
<path d="M27.573 18.8579C28.1372 18.8579 28.7013 18.8579 29.2532 18.8579C30.9702 18.8702 32.6872 18.8947 34.3919 18.8947C34.9316 18.8947 35.0297 19.14 34.9929 19.6183C34.858 21.0532 34.1589 21.8872 32.724 22.0834C31.7797 22.2061 30.8108 22.1815 29.8542 22.1815C29.7192 22.1815 29.474 22.0344 29.4494 21.924C29.1674 20.7098 28.6032 19.6796 27.573 18.8579Z" fill="white"/>
<path d="M14.6162 22.8644C16.137 22.8644 17.5351 22.8521 18.9332 22.8767C19.0682 22.8767 19.3012 23.1342 19.3134 23.2691C19.3502 24.1276 19.3502 24.9861 19.3012 25.8446C19.2889 26.0041 19.0314 26.2616 18.8842 26.2616C18.1115 26.2616 17.3266 26.2616 16.5662 26.1512C15.6587 26.0163 15.0577 25.4276 14.8492 24.5323C14.7143 23.9559 14.6775 23.3427 14.6162 22.8644Z" fill="white"/>
<path d="M33.6785 22.7725C34.0833 24.5753 33.2125 25.9366 31.4587 26.1574C30.5143 26.2678 29.5455 26.2433 28.5888 26.2678C28.4539 26.2678 28.3313 26.2065 28.1228 26.1451C28.3926 25.814 28.687 25.5565 28.8219 25.2376C29.0794 24.6489 29.2143 23.9989 29.4473 23.3979C29.5209 23.2017 29.754 22.9319 29.9257 22.9196C30.5511 22.8828 31.1889 22.9687 31.8144 22.9442C32.4398 22.9196 33.0531 22.8338 33.6785 22.7725Z" fill="white"/>
<path d="M15.9332 26.9336C16.9634 26.9336 17.9568 26.9213 18.9379 26.9581C19.0728 26.9581 19.3181 27.2402 19.3058 27.3751C19.269 28.2091 19.2077 29.0431 19.0851 29.8648C19.0606 30.0487 18.7662 30.3063 18.5822 30.3185C16.7917 30.4412 15.4058 28.5893 15.9332 26.9336Z" fill="white"/>
<path d="M32.4888 26.9825C31.2256 26.9825 30.0114 26.9703 28.785 26.9825C28.0982 26.9825 27.5586 26.7372 27.1416 26.0137C27.2888 25.891 27.4359 25.7929 27.5709 25.6703C29.1162 24.2353 29.1529 21.5249 27.6322 20.0655C26.7246 19.1702 25.5718 18.8513 24.3453 18.8268C20.8868 18.79 17.4405 18.8145 13.9943 18.8022C13.5528 18.8022 13.4301 18.9862 13.4301 19.3909C13.4056 21.0098 14.448 22.1136 16.1896 22.1995C17.2443 22.2608 18.3113 22.224 19.3783 22.2117C19.7953 22.1995 19.9792 22.3589 19.967 22.7759C19.8811 25.1552 19.8075 27.5467 19.734 29.926C19.734 30.0363 19.7585 30.159 19.7708 30.343C20.6906 30.343 21.5859 30.343 22.4812 30.343C23.3642 30.3307 23.3642 30.3307 23.3642 29.4231C23.3642 28.6259 23.3642 27.8165 23.3642 27.0193C23.4255 27.0071 23.4868 26.9825 23.5482 26.9703C23.7199 27.1542 23.9038 27.3505 24.0633 27.5467C24.5293 28.1108 24.9463 28.7363 25.4737 29.2392C25.9152 29.6561 26.4671 30.1835 27.0067 30.2326C28.2086 30.3552 29.4596 30.3552 30.6492 30.1467C32.1086 29.8892 32.9181 28.2458 32.4888 26.9825ZM24.7869 24.0023C24.6642 24.0759 24.5538 24.125 24.4435 24.1617C24.284 24.2231 24.1491 24.2476 24.0265 24.2476C23.5727 24.2476 23.3642 23.8306 23.3765 22.9844C23.3765 22.9476 23.3642 22.8985 23.3765 22.8617C23.4868 22.5306 23.0944 21.9787 23.7444 21.8806C24.4189 21.7702 25.1425 22.1627 25.302 22.69C25.4737 23.2174 25.2774 23.7202 24.7869 24.0023Z" fill="white"/>
<defs>
<filter id="filter0_f_777_110542" x="0.9" y="0.9" width="46.2" height="46.2" filterUnits="userSpaceOnUse" color-interpolation-filters="sRGB">
<feFlood flood-opacity="0" result="BackgroundImageFix"/>
<feBlend mode="normal" in="SourceGraphic" in2="BackgroundImageFix" result="shape"/>
<feGaussianBlur stdDeviation="1.05" result="effect1_foregroundBlur_777_110542"/>
</filter>
<radialGradient id="paint0_radial_777_110542" cx="0" cy="0" r="1" gradientUnits="userSpaceOnUse" gradientTransform="translate(24 24) rotate(90) scale(21)">
<stop stop-color="#EE2E22" stop-opacity="0"/>
<stop offset="1" stop-color="#EE2E22"/>
</radialGradient>
</defs>
</svg>
