<svg width="27" height="27" viewBox="0 0 27 27" fill="none" xmlns="http://www.w3.org/2000/svg">
<path d="M13.5011 3.67822C11.2234 3.68086 9.03987 4.57066 7.42935 6.15242C5.81883 7.73419 4.91285 9.87877 4.91017 12.1157C4.90744 13.9438 5.51542 15.7222 6.64084 17.1782C6.64084 17.1782 6.87514 17.4812 6.91341 17.5249L13.5011 25.1555L20.0918 17.5211C20.1262 17.4804 20.3613 17.1782 20.3613 17.1782L20.3621 17.1759C21.4869 15.7205 22.0946 13.9429 22.092 12.1157C22.0893 9.87877 21.1833 7.73419 19.5728 6.15242C17.9623 4.57066 15.7787 3.68086 13.5011 3.67822Z" fill="#DA291C"/>
<path d="M15.2773 9.23926C15.5929 9.23926 15.9085 9.23926 16.2173 9.23926C17.1778 9.24612 18.1383 9.25984 19.0919 9.25984C19.3938 9.25984 19.4487 9.39706 19.4281 9.66463C19.3526 10.4673 18.9616 10.9339 18.1589 11.0436C17.6306 11.1123 17.0886 11.0985 16.5534 11.0985C16.478 11.0985 16.3408 11.0162 16.327 10.9545C16.1692 10.2752 15.8536 9.69893 15.2773 9.23926Z" fill="white"/>
<path d="M8.02832 11.4802C8.87906 11.4802 9.66119 11.4734 10.4433 11.4871C10.5188 11.4871 10.6491 11.6312 10.656 11.7066C10.6766 12.1869 10.6766 12.6671 10.6491 13.1474C10.6423 13.2366 10.4982 13.3807 10.4159 13.3807C9.98364 13.3807 9.54455 13.3807 9.11918 13.3189C8.61149 13.2435 8.27531 12.9141 8.15868 12.4133C8.08321 12.0908 8.06262 11.7478 8.02832 11.4802Z" fill="white"/>
<path d="M18.6924 11.4292C18.9188 12.4377 18.4317 13.1993 17.4506 13.3228C16.9223 13.3845 16.3803 13.3708 15.8452 13.3845C15.7697 13.3845 15.7011 13.3502 15.5845 13.3159C15.7354 13.1307 15.9001 12.9866 15.9755 12.8082C16.1196 12.4789 16.1951 12.1153 16.3254 11.7791C16.3666 11.6693 16.497 11.5184 16.593 11.5115C16.9429 11.4909 17.2997 11.539 17.6496 11.5253C17.9995 11.5115 18.3425 11.4635 18.6924 11.4292Z" fill="white"/>
<path d="M8.76457 13.7565C9.34088 13.7565 9.8966 13.7496 10.4455 13.7702C10.5209 13.7702 10.6581 13.928 10.6513 14.0035C10.6307 14.47 10.5964 14.9365 10.5278 15.3962C10.5141 15.4991 10.3494 15.6432 10.2465 15.65C9.24483 15.7187 8.46956 14.6827 8.76457 13.7565Z" fill="white"/>
<path d="M18.0262 13.7841C17.3195 13.7841 16.6403 13.7773 15.9542 13.7841C15.57 13.7841 15.2681 13.6469 15.0349 13.2421C15.1172 13.1735 15.1995 13.1187 15.275 13.05C16.1394 12.2473 16.16 10.7311 15.3093 9.91467C14.8016 9.41383 14.1567 9.23545 13.4706 9.22173C11.5359 9.20115 9.60797 9.21487 7.68009 9.20801C7.4331 9.20801 7.36449 9.31092 7.36449 9.53733C7.35077 10.4429 7.93394 11.0604 8.90817 11.1084C9.4982 11.1427 10.0951 11.1222 10.692 11.1153C10.9252 11.1084 11.0282 11.1976 11.0213 11.4309C10.9733 12.7619 10.9321 14.0997 10.8909 15.4307C10.8909 15.4925 10.9047 15.5611 10.9115 15.664C11.4261 15.664 11.9269 15.664 12.4278 15.664C12.9217 15.6571 12.9217 15.6571 12.9217 15.1494C12.9217 14.7035 12.9217 14.2507 12.9217 13.8047C12.956 13.7979 12.9903 13.7842 13.0246 13.7773C13.1207 13.8802 13.2236 13.99 13.3128 14.0997C13.5735 14.4153 13.8068 14.7652 14.1018 15.0465C14.3488 15.2798 14.6575 15.5748 14.9594 15.6023C15.6317 15.6709 16.3315 15.6709 16.997 15.5542C17.8135 15.4102 18.2663 14.4908 18.0262 13.7841ZM13.7176 12.117C13.649 12.1581 13.5872 12.1856 13.5255 12.2062C13.4363 12.2405 13.3608 12.2542 13.2922 12.2542C13.0384 12.2542 12.9217 12.0209 12.9286 11.5475C12.9286 11.527 12.9217 11.4995 12.9286 11.4789C12.9903 11.2937 12.7708 10.985 13.1344 10.9301C13.5118 10.8683 13.9165 11.0879 14.0057 11.3829C14.1018 11.6779 13.992 11.9592 13.7176 12.117Z" fill="white"/>
</svg>
