<svg width="18" height="18" viewBox="0 0 18 18" fill="none" xmlns="http://www.w3.org/2000/svg">
<g clip-path="url(#clip0_801_144709)">
<path fill-rule="evenodd" clip-rule="evenodd" d="M10.5614 2.72385C11.203 3.21335 11.9489 3.95757 12.9957 5.00435C14.0424 6.05113 14.7867 6.79704 15.2761 7.4386C15.7557 8.06719 15.9375 8.52904 15.9375 9C15.9375 9.47096 15.7557 9.93282 15.2761 10.5614C14.7867 11.203 14.0424 11.9489 12.9957 12.9957C11.9489 14.0424 11.203 14.7867 10.5614 15.2761C9.93281 15.7557 9.47096 15.9375 9 15.9375C8.52904 15.9375 8.06719 15.7557 7.4386 15.2761C6.79704 14.7867 6.05113 14.0424 5.00435 12.9957C3.95757 11.9489 3.21334 11.203 2.72385 10.5614C2.24426 9.93281 2.0625 9.47096 2.0625 9C2.0625 8.52904 2.24426 8.06719 2.72385 7.4386C3.21334 6.79704 3.95757 6.05113 5.00435 5.00435C6.05113 3.95757 6.79704 3.21334 7.4386 2.72385C8.06718 2.24426 8.52904 2.0625 9 2.0625C9.47096 2.0625 9.93281 2.24426 10.5614 2.72385ZM11.2438 1.82945C10.5151 1.27351 9.81584 0.9375 9 0.9375C8.18416 0.9375 7.48485 1.27351 6.7562 1.82945C6.04753 2.37015 5.24893 3.16876 4.23884 4.17886L4.17886 4.23884C3.16876 5.24893 2.37015 6.04753 1.82945 6.7562C1.27351 7.48485 0.9375 8.18416 0.9375 9C0.9375 9.81584 1.27351 10.5151 1.82945 11.2438C2.37015 11.9525 3.16876 12.7511 4.17885 13.7611L4.23886 13.8211C5.24893 14.8312 6.04753 15.6299 6.7562 16.1705C7.48485 16.7265 8.18416 17.0625 9 17.0625C9.81584 17.0625 10.5151 16.7265 11.2438 16.1706C11.9525 15.6299 12.7511 14.8312 13.7612 13.8211L13.8211 13.7612C14.8312 12.7511 15.6299 11.9525 16.1705 11.2438C16.7265 10.5151 17.0625 9.81584 17.0625 9C17.0625 8.18416 16.7265 7.48485 16.1705 6.7562C15.6299 6.04753 14.8312 5.24894 13.8212 4.23887L13.7611 4.17884C12.7511 3.16875 11.9525 2.37015 11.2438 1.82945Z" fill="#FBFBFB"/>
<path fill-rule="evenodd" clip-rule="evenodd" d="M8.41036 6.36528C8.19789 6.13865 7.84192 6.12716 7.61528 6.33964L5.61528 8.21464C5.50185 8.32097 5.4375 8.46952 5.4375 8.625C5.4375 8.78048 5.50185 8.92903 5.61528 9.03536L7.61528 10.9104C7.84192 11.1228 8.19789 11.1114 8.41036 10.8847C8.62284 10.6581 8.61135 10.3021 8.38472 10.0896L7.42244 9.1875H10C10.2503 9.1875 10.6331 9.26226 10.9353 9.46623C11.2074 9.64989 11.4375 9.94909 11.4375 10.5C11.4375 10.8107 11.6893 11.0625 12 11.0625C12.3107 11.0625 12.5625 10.8107 12.5625 10.5C12.5625 9.55091 12.1259 8.91261 11.5647 8.53377C11.0335 8.17524 10.4163 8.0625 10 8.0625H7.42244L8.38472 7.16037C8.61136 6.94789 8.62284 6.59192 8.41036 6.36528Z" fill="#FBFBFB"/>
</g>
<defs>
<clipPath id="clip0_801_144709">
<rect width="18" height="18" fill="white"/>
</clipPath>
</defs>
</svg>
