<svg width="20" height="20" viewBox="0 0 20 20" fill="none" xmlns="http://www.w3.org/2000/svg">
<path fill-rule="evenodd" clip-rule="evenodd" d="M7.58306 1.99803C7.70737 2.32005 7.54709 2.68187 7.22507 2.80617C7.10721 2.85167 6.99074 2.89998 6.87575 2.95104C6.56026 3.09109 6.19097 2.94888 6.05091 2.63339C5.91085 2.31791 6.05307 1.94861 6.36855 1.80856C6.50231 1.74918 6.6378 1.69297 6.77492 1.64004C7.09694 1.51574 7.45875 1.67601 7.58306 1.99803ZM4.7065 3.53364C4.94455 3.78359 4.9349 4.1792 4.68494 4.41726C4.59355 4.50429 4.50429 4.59355 4.41726 4.68494C4.1792 4.9349 3.78359 4.94455 3.53363 4.7065C3.28368 4.46845 3.27402 4.07284 3.51208 3.82288C3.61313 3.71677 3.71677 3.61313 3.82288 3.51208C4.07284 3.27402 4.46845 3.28368 4.7065 3.53364ZM2.63339 6.05091C2.94888 6.19097 3.09109 6.56026 2.95103 6.87575C2.89998 6.99074 2.85167 7.10721 2.80617 7.22507C2.68187 7.54709 2.32005 7.70737 1.99803 7.58306C1.67601 7.45876 1.51573 7.09694 1.64004 6.77492C1.69297 6.6378 1.74918 6.50231 1.80856 6.36855C1.94861 6.05307 2.31791 5.91085 2.63339 6.05091ZM1.68432 9.17012C2.0294 9.17846 2.30238 9.46496 2.29404 9.81003C2.29252 9.87319 2.29175 9.93654 2.29175 10.0001C2.29175 10.0636 2.29252 10.127 2.29404 10.1901C2.30238 10.5352 2.0294 10.8217 1.68432 10.83C1.33924 10.8384 1.05274 10.5654 1.04441 10.2203C1.04264 10.1471 1.04175 10.0737 1.04175 10.0001C1.04175 9.92647 1.04264 9.85305 1.04441 9.77984C1.05274 9.43477 1.33924 9.16178 1.68432 9.17012ZM18.0021 12.4171C18.3242 12.5414 18.4844 12.9032 18.3601 13.2252C18.3072 13.3624 18.251 13.4979 18.1916 13.6316C18.0515 13.9471 17.6823 14.0893 17.3668 13.9493C17.0513 13.8092 16.9091 13.4399 17.0491 13.1244C17.1002 13.0094 17.1485 12.893 17.194 12.7751C17.3183 12.4531 17.6801 12.2928 18.0021 12.4171ZM1.99803 12.4171C2.32005 12.2928 2.68187 12.4531 2.80617 12.7751C2.85167 12.893 2.89998 13.0094 2.95104 13.1244C3.09109 13.4399 2.94888 13.8092 2.63339 13.9493C2.31791 14.0893 1.94861 13.9471 1.80856 13.6316C1.74918 13.4979 1.69297 13.3624 1.64004 13.2252C1.51574 12.9032 1.67601 12.5414 1.99803 12.4171ZM16.4665 15.2937C16.7165 15.5317 16.7261 15.9273 16.4881 16.1773C16.387 16.2834 16.2834 16.387 16.1773 16.4881C15.9273 16.7261 15.5317 16.7165 15.2937 16.4665C15.0556 16.2166 15.0653 15.821 15.3152 15.5829C15.4066 15.4959 15.4959 15.4066 15.5829 15.3152C15.821 15.0653 16.2166 15.0556 16.4665 15.2937ZM3.53364 15.2937C3.78359 15.0556 4.1792 15.0653 4.41726 15.3152C4.50429 15.4066 4.59355 15.4959 4.68494 15.5829C4.9349 15.821 4.94455 16.2166 4.7065 16.4665C4.46845 16.7165 4.07284 16.7261 3.82288 16.4881C3.71677 16.387 3.61313 16.2834 3.51208 16.1773C3.27402 15.9273 3.28368 15.5317 3.53364 15.2937ZM6.05091 17.3668C6.19097 17.0513 6.56026 16.9091 6.87575 17.0491C6.99074 17.1002 7.10721 17.1485 7.22507 17.194C7.54709 17.3183 7.70737 17.6801 7.58306 18.0021C7.45876 18.3242 7.09694 18.4844 6.77492 18.3601C6.6378 18.3072 6.50231 18.251 6.36855 18.1916C6.05307 18.0515 5.91085 17.6823 6.05091 17.3668ZM13.9493 17.3668C14.0893 17.6823 13.9471 18.0515 13.6316 18.1916C13.4979 18.251 13.3624 18.3072 13.2252 18.3601C12.9032 18.4844 12.5414 18.3242 12.4171 18.0021C12.2928 17.6801 12.4531 17.3183 12.7751 17.194C12.893 17.1485 13.0094 17.1002 13.1244 17.0491C13.4399 16.9091 13.8092 17.0513 13.9493 17.3668ZM9.17012 18.3158C9.17846 17.9708 9.46496 17.6978 9.81003 17.7061C9.87319 17.7076 9.93654 17.7084 10.0001 17.7084C10.0636 17.7084 10.127 17.7076 10.1901 17.7061C10.5352 17.6978 10.8217 17.9708 10.83 18.3158C10.8384 18.6609 10.5654 18.9474 10.2203 18.9558C10.1471 18.9575 10.0737 18.9584 10.0001 18.9584C9.92647 18.9584 9.85305 18.9575 9.77984 18.9558C9.43477 18.9474 9.16178 18.6609 9.17012 18.3158Z" fill="#FBFBFB"/>
<path fill-rule="evenodd" clip-rule="evenodd" d="M9.37508 1.66675C9.37508 1.32157 9.6549 1.04175 10.0001 1.04175C14.9476 1.04175 18.9584 5.05253 18.9584 10.0001C18.9584 10.3453 18.6786 10.6251 18.3334 10.6251C17.9882 10.6251 17.7084 10.3453 17.7084 10.0001C17.7084 5.74289 14.2573 2.29175 10.0001 2.29175C9.6549 2.29175 9.37508 2.01193 9.37508 1.66675ZM10.0001 6.87508C10.3453 6.87508 10.6251 7.1549 10.6251 7.50008V10.2084H13.3334C13.6786 10.2084 13.9584 10.4882 13.9584 10.8334C13.9584 11.1786 13.6786 11.4584 13.3334 11.4584H10.0001C9.6549 11.4584 9.37508 11.1786 9.37508 10.8334V7.50008C9.37508 7.1549 9.6549 6.87508 10.0001 6.87508Z" fill="#FBFBFB"/>
</svg>
