<svg width="20" height="20" viewBox="0 0 20 20" fill="none" xmlns="http://www.w3.org/2000/svg">
<path fill-rule="evenodd" clip-rule="evenodd" d="M13.0094 1.31985C14.39 1.12262 15.6252 2.19389 15.6252 3.58848V4.73557C16.6164 5.25953 17.2918 6.30095 17.2918 7.50013V15.8335C17.2918 17.5594 15.8927 18.9585 14.1668 18.9585H5.8335C4.10761 18.9585 2.7085 17.5594 2.7085 15.8335V4.1668C2.7085 4.15905 2.70864 4.15134 2.70892 4.14366C2.70864 4.13167 2.7085 4.11964 2.7085 4.10758C2.7085 3.35237 3.26381 2.71208 4.01144 2.60527L13.0094 1.31985ZM3.9585 5.62513V15.8335C3.9585 16.869 4.79796 17.7085 5.8335 17.7085H14.1668C15.2024 17.7085 16.0418 16.869 16.0418 15.8335V7.50013C16.0418 6.4646 15.2024 5.62513 14.1668 5.62513H3.9585ZM4.22605 4.37513H14.3752V3.58848C14.3752 2.95458 13.8137 2.46764 13.1862 2.55729L4.18821 3.84271C4.0564 3.86154 3.9585 3.97443 3.9585 4.10758C3.9585 4.25535 4.07829 4.37513 4.22605 4.37513ZM6.04183 10.0001C6.04183 9.65496 6.32165 9.37514 6.66683 9.37514H13.3335C13.6787 9.37514 13.9585 9.65496 13.9585 10.0001C13.9585 10.3453 13.6787 10.6251 13.3335 10.6251H6.66683C6.32165 10.6251 6.04183 10.3453 6.04183 10.0001ZM6.04183 12.9168C6.04183 12.5716 6.32165 12.2918 6.66683 12.2918H11.2502C11.5953 12.2918 11.8752 12.5716 11.8752 12.9168C11.8752 13.262 11.5953 13.5418 11.2502 13.5418H6.66683C6.32165 13.5418 6.04183 13.262 6.04183 12.9168Z" fill="#FBFBFB"/>
</svg>
