<svg width="21" height="20" viewBox="0 0 21 20" fill="none" xmlns="http://www.w3.org/2000/svg">
<path fill-rule="evenodd" clip-rule="evenodd" d="M9.87496 1.66699C9.87496 1.32181 10.1548 1.04199 10.5 1.04199C15.4475 1.04199 19.4583 5.05277 19.4583 10.0003C19.4583 14.9479 15.4475 18.9587 10.5 18.9587C5.55241 18.9587 1.54163 14.9479 1.54163 10.0003C1.54163 9.65515 1.82145 9.37533 2.16663 9.37533C2.5118 9.37533 2.79163 9.65515 2.79163 10.0003C2.79163 14.2575 6.24276 17.7087 10.5 17.7087C14.7572 17.7087 18.2083 14.2575 18.2083 10.0003C18.2083 5.74313 14.7572 2.29199 10.5 2.29199C10.1548 2.29199 9.87496 2.01217 9.87496 1.66699ZM10.5 6.87533C10.8451 6.87533 11.125 7.15515 11.125 7.50033V10.2087H13.8333C14.1785 10.2087 14.4583 10.4885 14.4583 10.8337C14.4583 11.1788 14.1785 11.4587 13.8333 11.4587H10.5C10.1548 11.4587 9.87496 11.1788 9.87496 10.8337V7.50033C9.87496 7.15515 10.1548 6.87533 10.5 6.87533Z" fill="white"/>
<path fill-rule="evenodd" clip-rule="evenodd" d="M8.08294 1.99828C8.20724 2.32029 8.04697 2.68211 7.72495 2.80642C7.60709 2.85191 7.49062 2.90023 7.37562 2.95128C7.06014 3.09134 6.69085 2.94912 6.55079 2.63364C6.41073 2.31815 6.55295 1.94886 6.86843 1.8088C7.00219 1.74942 7.13767 1.69322 7.2748 1.64029C7.59681 1.51598 7.95863 1.67626 8.08294 1.99828ZM5.20638 3.53388C5.44443 3.78384 5.43478 4.17945 5.18482 4.4175C5.09343 4.50454 5.00417 4.5938 4.91713 4.68519C4.67908 4.93515 4.28347 4.9448 4.03351 4.70675C3.78355 4.46869 3.7739 4.07308 4.01195 3.82312C4.11301 3.71701 4.21665 3.61338 4.32276 3.51232C4.57272 3.27427 4.96833 3.28392 5.20638 3.53388ZM3.13327 6.05116C3.44876 6.19121 3.59097 6.5605 3.45091 6.87599C3.39986 6.99099 3.35155 7.10745 3.30605 7.22532C3.18174 7.54733 2.81993 7.70761 2.49791 7.58331C2.17589 7.459 2.01561 7.09718 2.13992 6.77516C2.19285 6.63804 2.24906 6.50255 2.30843 6.3688C2.44849 6.05331 2.81778 5.9111 3.13327 6.05116Z" fill="white"/>
</svg>
