<svg width="20" height="20" viewBox="0 0 20 20" fill="none" xmlns="http://www.w3.org/2000/svg">
<path opacity="0.5" fill-rule="evenodd" clip-rule="evenodd" d="M5.41675 1.4585C5.41675 1.11332 5.13693 0.833496 4.79175 0.833496C4.44657 0.833496 4.16675 1.11332 4.16675 1.4585V18.1252C4.16675 18.4703 4.44657 18.7502 4.79175 18.7502C5.13693 18.7502 5.41675 18.4703 5.41675 18.1252V11.3335V3.00016V1.4585Z" fill="#CCCCCC"/>
<path d="M11.1239 3.15781L10.9542 3.08993C9.65184 2.56899 8.22608 2.43809 6.85064 2.71317L5.41675 2.99995V11.3333L6.85064 11.0465C8.22608 10.7714 9.65184 10.9023 10.9542 11.4233C12.3655 11.9878 13.9188 12.0932 15.3934 11.7245L15.5721 11.6799C16.093 11.5496 16.4584 11.0816 16.4584 10.5447V4.40553C16.4584 3.75506 15.8471 3.27778 15.2161 3.43554C13.8567 3.77537 12.4249 3.6782 11.1239 3.15781Z" fill="#E8E8E8"/>
</svg>
