<svg width="32" height="32" viewBox="0 0 32 32" fill="none" xmlns="http://www.w3.org/2000/svg">
<path d="M5.33325 7.99972V25.333C5.33325 27.5422 7.12411 29.333 9.33325 29.333H22.6666C24.8757 29.333 26.6666 27.5422 26.6666 25.333V11.9997C26.6666 9.79058 24.8757 7.99972 22.6666 7.99972H5.33325ZM5.33325 7.99972V6.66638" stroke="#FBFBFB" stroke-width="1.25"/>
<circle cx="16" cy="17.3336" r="4" stroke="#FBFBFB" stroke-width="1.25"/>
<path d="M23.9999 8.00003V8.62503H24.6249V8.00003H23.9999ZM20.9561 3.10152L20.8677 2.4828L20.9561 3.10152ZM6.55938 5.1582L6.47099 4.53948L6.55938 5.1582ZM6.76134 8.62503H23.9999V7.37503H6.76134V8.62503ZM24.6249 8.00003V5.74139H23.3749V8.00003H24.6249ZM20.8677 2.4828L6.47099 4.53948L6.64777 5.77692L21.0445 3.72024L20.8677 2.4828ZM6.47099 4.53948C5.45954 4.68397 4.70825 5.55022 4.70825 6.57194H5.95825C5.95825 6.17228 6.25213 5.83344 6.64777 5.77692L6.47099 4.53948ZM24.6249 5.74139C24.6249 3.73824 22.8507 2.19952 20.8677 2.4828L21.0445 3.72024C22.2745 3.54453 23.3749 4.49893 23.3749 5.74139H24.6249ZM6.76134 7.37503C6.31781 7.37503 5.95825 7.01547 5.95825 6.57194H4.70825C4.70825 7.70583 5.62745 8.62503 6.76134 8.62503V7.37503Z" fill="#FBFBFB"/>
<path d="M13.3333 25.3336H18.6666" stroke="#FBFBFB" stroke-width="1.25" stroke-linecap="round"/>
</svg>
