<svg width="12" height="12" viewBox="0 0 12 12" fill="none" xmlns="http://www.w3.org/2000/svg">
<path d="M5.99425 0.166992C2.77425 0.166992 0.166748 2.78033 0.166748 6.00033C0.166748 9.22033 2.77425 11.8337 5.99425 11.8337C9.22008 11.8337 11.8334 9.22033 11.8334 6.00033C11.8334 2.78033 9.22008 0.166992 5.99425 0.166992ZM6.00008 10.667C3.42175 10.667 1.33341 8.57866 1.33341 6.00033C1.33341 3.42199 3.42175 1.33366 6.00008 1.33366C8.57841 1.33366 10.6667 3.42199 10.6667 6.00033C10.6667 8.57866 8.57841 10.667 6.00008 10.667ZM6.29175 3.08366H5.41675V6.58366L8.47925 8.42116L8.91675 7.70366L6.29175 6.14616V3.08366Z" fill="#9C9C9C"/>
</svg>
