<svg width="41" height="36" viewBox="0 0 41 36" fill="none" xmlns="http://www.w3.org/2000/svg">
<path d="M11.125 14.7094C11.125 13.2358 11.125 12.4991 11.534 12.0693C11.6792 11.9168 11.8557 11.7947 12.0524 11.7107C12.6064 11.4741 13.3345 11.707 14.7906 12.173C15.9024 12.5288 16.4582 12.7066 17.0199 12.6882C17.2262 12.6815 17.4313 12.6551 17.6321 12.6095C18.1791 12.4854 18.6666 12.1734 19.6416 11.5494L21.0816 10.6278C22.3306 9.82843 22.9551 9.42876 23.672 9.3366C24.3888 9.24444 25.1008 9.47229 26.5249 9.92799L27.7382 10.3162C28.7695 10.6463 29.2851 10.8113 29.5801 11.2041C29.875 11.5969 29.875 12.1187 29.875 13.1623V21.2907C29.875 22.7642 29.875 23.501 29.466 23.9307C29.3208 24.0833 29.1443 24.2054 28.9476 24.2894C28.3936 24.526 27.6655 24.293 26.2094 23.827C25.0976 23.4713 24.5418 23.2934 23.9801 23.3118C23.7738 23.3186 23.5687 23.3449 23.3679 23.3905C22.8209 23.5146 22.3334 23.8266 21.3584 24.4507L19.9184 25.3722C18.6694 26.1716 18.0449 26.5713 17.328 26.6634C16.6112 26.7556 15.8992 26.5277 14.4751 26.072L13.2618 25.6838C12.2305 25.3538 11.7149 25.1888 11.4199 24.7959C11.125 24.4031 11.125 23.8813 11.125 22.8377V14.7094Z" stroke="#787878" stroke-width="1.5"/>
<path d="M17.375 12.6387V26.5" stroke="#787878" stroke-width="1.5"/>
<path d="M23.625 9V23" stroke="#787878" stroke-width="1.5"/>
</svg>
