<svg width="19" height="14" viewBox="0 0 19 14" fill="none" xmlns="http://www.w3.org/2000/svg">
<path fill-rule="evenodd" clip-rule="evenodd" d="M11.8703 0.674531C12.414 1.06198 12.8446 1.59434 13.116 2.21438C13.4097 2.85902 13.5295 3.57285 13.4629 4.28123C13.3963 4.9897 13.1458 5.66674 12.7376 6.24172L12.4165 6.69151H15.2438C15.4825 6.69151 15.702 6.82236 15.8155 7.03235L18.57 12.1263C18.8042 12.5594 18.4906 13.0855 17.9982 13.0855H9.49986C9.22372 13.0855 8.99986 12.8616 8.99986 12.5855C8.99986 12.3094 9.22372 12.0855 9.49986 12.0855H17.4111L15.0351 7.69151H11.7028L10.0258 10.0409C9.95908 10.1345 9.85303 10.1897 9.74019 10.1897C9.62743 10.1897 9.52138 10.1345 9.45469 10.0409L7.7777 7.69151H3.96458L1.58864 12.0855H5.12486C5.40101 12.0855 5.62486 12.3094 5.62486 12.5855C5.62486 12.8616 5.40101 13.0855 5.12486 13.0855H1.0015C0.509156 13.0855 0.195552 12.5594 0.429731 12.1263L3.18418 7.03234C3.29772 6.82236 3.51723 6.69151 3.75594 6.69151H7.06392L6.74287 6.24172C6.33457 5.66682 6.08399 4.98978 6.01737 4.28131C5.95075 3.57285 6.07047 2.85904 6.36405 2.21438C6.67706 1.50201 7.19829 0.907465 7.85529 0.513284C8.51222 0.119184 9.27233 -0.0549687 10.03 0.0151796C10.6904 0.0591183 11.3265 0.287001 11.8703 0.674531ZM8.42581 5.17453C8.7744 5.53266 9.24711 5.73385 9.74005 5.73385L9.74003 5.73387C10.2328 5.73329 10.7052 5.53195 11.0537 5.17397C11.4021 4.81592 11.5981 4.33055 11.5987 3.82426C11.5987 3.3178 11.4028 2.8321 11.0543 2.47398C10.7057 2.11586 10.233 1.91467 9.74005 1.91467C9.24711 1.91467 8.77437 2.11586 8.42581 2.47398C8.07725 2.83212 7.88143 3.3178 7.88143 3.82426C7.88143 4.33072 8.07725 4.81641 8.42581 5.17453ZM11.0682 3.82311C11.0682 4.57639 10.4738 5.18711 9.74065 5.18711C9.00748 5.18711 8.41307 4.57639 8.41307 3.82311C8.41307 3.06984 9.00748 2.45912 9.74065 2.45912C10.4738 2.45912 11.0682 3.06984 11.0682 3.82311ZM6.85075 12.125C6.57461 12.125 6.35075 12.3489 6.35075 12.625C6.35075 12.9011 6.57461 13.125 6.85075 13.125H7.77575C8.05189 13.125 8.27575 12.9011 8.27575 12.625C8.27575 12.3489 8.05189 12.125 7.77575 12.125H6.85075Z" fill="white"/>
</svg>
