<svg width="20" height="21" viewBox="0 0 20 21" fill="none" xmlns="http://www.w3.org/2000/svg">
<path d="M3.33301 15.5V5.5" stroke="#FBFBFB" stroke-width="1.5" stroke-linecap="round"/>
<path d="M16.667 5.5V15.5" stroke="#FBFBFB" stroke-width="1.5" stroke-linecap="round"/>
<path d="M9.99967 8.83366C13.6816 8.83366 16.6663 7.34127 16.6663 5.50033C16.6663 3.65938 13.6816 2.16699 9.99967 2.16699C6.31778 2.16699 3.33301 3.65938 3.33301 5.50033C3.33301 7.34127 6.31778 8.83366 9.99967 8.83366Z" stroke="#FBFBFB" stroke-width="1.5"/>
<path d="M16.6663 10.5C16.6663 12.3409 13.6816 13.8333 9.99967 13.8333C6.31778 13.8333 3.33301 12.3409 3.33301 10.5" stroke="#FBFBFB" stroke-width="1.5"/>
<path d="M16.6663 15.5C16.6663 17.3409 13.6816 18.8333 9.99967 18.8333C6.31778 18.8333 3.33301 17.3409 3.33301 15.5" stroke="#FBFBFB" stroke-width="1.5"/>
</svg>
