<svg width="20" height="21" viewBox="0 0 20 21" fill="none" xmlns="http://www.w3.org/2000/svg">
<path d="M2.0835 5.91683C2.0835 4.34548 2.0835 3.55981 2.57165 3.07165C3.05981 2.5835 3.84548 2.5835 5.41683 2.5835C6.98818 2.5835 7.77385 2.5835 8.26201 3.07165C8.75016 3.55981 8.75016 4.34548 8.75016 5.91683C8.75016 7.48818 8.75016 8.27385 8.26201 8.76201C7.77385 9.25016 6.98818 9.25016 5.41683 9.25016C3.84548 9.25016 3.05981 9.25016 2.57165 8.76201C2.0835 8.27385 2.0835 7.48818 2.0835 5.91683Z" stroke="white" stroke-width="1.5"/>
<path d="M11.25 15.0833C11.25 13.512 11.25 12.7263 11.7382 12.2382C12.2263 11.75 13.012 11.75 14.5833 11.75C16.1547 11.75 16.9404 11.75 17.4285 12.2382C17.9167 12.7263 17.9167 13.512 17.9167 15.0833C17.9167 16.6547 17.9167 17.4404 17.4285 17.9285C16.9404 18.4167 16.1547 18.4167 14.5833 18.4167C13.012 18.4167 12.2263 18.4167 11.7382 17.9285C11.25 17.4404 11.25 16.6547 11.25 15.0833Z" stroke="white" stroke-width="1.5"/>
<path d="M2.0835 15.0833C2.0835 13.512 2.0835 12.7263 2.57165 12.2382C3.05981 11.75 3.84548 11.75 5.41683 11.75C6.98818 11.75 7.77385 11.75 8.26201 12.2382C8.75016 12.7263 8.75016 13.512 8.75016 15.0833C8.75016 16.6547 8.75016 17.4404 8.26201 17.9285C7.77385 18.4167 6.98818 18.4167 5.41683 18.4167C3.84548 18.4167 3.05981 18.4167 2.57165 17.9285C2.0835 17.4404 2.0835 16.6547 2.0835 15.0833Z" stroke="white" stroke-width="1.5"/>
<path d="M11.25 5.91683C11.25 4.34548 11.25 3.55981 11.7382 3.07165C12.2263 2.5835 13.012 2.5835 14.5833 2.5835C16.1547 2.5835 16.9404 2.5835 17.4285 3.07165C17.9167 3.55981 17.9167 4.34548 17.9167 5.91683C17.9167 7.48818 17.9167 8.27385 17.4285 8.76201C16.9404 9.25016 16.1547 9.25016 14.5833 9.25016C13.012 9.25016 12.2263 9.25016 11.7382 8.76201C11.25 8.27385 11.25 7.48818 11.25 5.91683Z" stroke="white" stroke-width="1.5"/>
</svg>
