<svg width="24" height="24" viewBox="0 0 24 24" fill="none" xmlns="http://www.w3.org/2000/svg">
<g clip-path="url(#clip0_2770_14729)">
<g filter="url(#filter0_d_2770_14729)">
<mask id="path-2-inside-1_2770_14729" fill="white">
<path fill-rule="evenodd" clip-rule="evenodd" d="M15.2543 3.96268C15.2075 3.85468 15.1305 3.76283 15.0329 3.69836C14.9352 3.63388 14.8212 3.59957 14.7046 3.59961H11.4035V4.8139H14.3126L17.113 11.2667C17.0488 11.3036 16.9914 11.3524 16.9439 11.4114L13.2227 16.0445H12.0596L11.2256 14.5259H12.5933C13.0708 14.5259 13.5288 14.334 13.8665 13.9924C14.2041 13.6508 14.3938 13.1875 14.3938 12.7045H8.09188C7.85312 12.7045 7.62413 12.8004 7.45529 12.9712C7.28646 13.142 7.19161 13.3736 7.19161 13.6152C7.19161 13.8567 7.28646 14.0884 7.45529 14.2591C7.62413 14.4299 7.85312 14.5259 8.09188 14.5259H9.85235L10.6863 16.0445H7.75575C7.62903 15.2233 7.24804 14.4577 6.65978 13.8626C5.92816 13.1225 4.93587 12.7068 3.90121 12.7068C2.86654 12.7068 1.87426 13.1225 1.14264 13.8626C0.411019 14.6027 0 15.6065 0 16.6532C0 17.6998 0.411019 18.7036 1.14264 19.4437C1.87426 20.1838 2.86654 20.5996 3.90121 20.5996C4.93587 20.5996 5.92816 20.1838 6.65978 19.4437C7.24878 18.8479 7.62998 18.0812 7.75623 17.2588H13.5084C13.5977 17.2587 13.6858 17.2385 13.7664 17.1997C13.847 17.1608 13.9179 17.1043 13.9742 17.0341L17.6369 12.474L18.0048 13.3218C17.7663 13.4752 17.5433 13.6556 17.3403 13.861C16.6087 14.6011 16.1977 15.6048 16.1977 16.6515C16.1977 17.6982 16.6087 18.702 17.3403 19.4421C18.0719 20.1821 19.0642 20.5979 20.0989 20.5979C21.1335 20.5979 22.1258 20.1821 22.8574 19.4421C23.5891 18.702 24.0001 17.6982 24.0001 16.6515C24.0001 15.6048 23.5891 14.6011 22.8574 13.861C22.1258 13.1209 21.1335 12.7051 20.0989 12.7051C19.7605 12.7051 19.4267 12.7495 19.105 12.8353L15.2543 3.96268ZM5.91384 16.0445H3.90546C3.74628 16.0445 3.59362 16.1085 3.48106 16.2223C3.36851 16.3362 3.30527 16.4906 3.30527 16.6516C3.30527 16.8127 3.36851 16.9671 3.48106 17.081C3.59362 17.1948 3.74628 17.2588 3.90546 17.2588H5.91475C5.81606 17.5946 5.63589 17.9036 5.38659 18.1558C4.99265 18.5543 4.45834 18.7782 3.90121 18.7782C3.34408 18.7782 2.80977 18.5543 2.41582 18.1558C2.02188 17.7573 1.80056 17.2168 1.80056 16.6532C1.80056 16.0896 2.02188 15.5491 2.41582 15.1506C2.80977 14.7521 3.34408 14.5282 3.90121 14.5282C4.45834 14.5282 4.99265 14.7521 5.38659 15.1506C5.63513 15.402 5.81495 15.7099 5.91384 16.0445ZM18.6135 15.1489C18.6557 15.1062 18.6995 15.0655 18.7448 15.0269L19.5565 16.8973C19.6205 17.0448 19.7397 17.1605 19.8881 17.219C20.0364 17.2775 20.2017 17.2741 20.3475 17.2093C20.4933 17.1446 20.6077 17.0239 20.6656 16.8739C20.7234 16.7238 20.72 16.5566 20.656 16.4091L19.8457 14.542C19.9293 14.5317 20.0138 14.5265 20.0989 14.5265C20.656 14.5265 21.1903 14.7504 21.5842 15.1489C21.9782 15.5474 22.1995 16.0879 22.1995 16.6515C22.1995 17.2151 21.9782 17.7556 21.5842 18.1541C21.1903 18.5526 20.656 18.7765 20.0989 18.7765C19.5417 18.7765 19.0074 18.5526 18.6135 18.1541C18.2195 17.7556 17.9982 17.2151 17.9982 16.6515C17.9982 16.0879 18.2195 15.5474 18.6135 15.1489ZM14.359 7.84732H11.804C9.91825 7.84732 8.53482 9.6396 8.99216 11.4902H15.2233C15.3256 11.4901 15.4261 11.4636 15.5154 11.4132C15.6047 11.3628 15.6798 11.2902 15.7336 11.2022C15.7873 11.1141 15.8179 11.0137 15.8225 10.9103C15.8272 10.807 15.8056 10.7042 15.7599 10.6116L14.4094 7.87889C14.4048 7.86941 14.3976 7.86144 14.3887 7.85586C14.3798 7.85029 14.3695 7.84733 14.359 7.84732ZM1.18975 9.0616C1.18975 8.90058 1.25298 8.74615 1.36554 8.63229C1.47809 8.51843 1.63075 8.45446 1.78993 8.45446H4.84908C5.29902 8.45462 5.74316 8.55712 6.14864 8.75438C6.55413 8.95165 6.91057 9.23862 7.19161 9.59407L7.91183 10.5036C7.98254 10.5929 8.02685 10.7007 8.03965 10.8144C8.05244 10.9281 8.03319 11.0432 7.98413 11.1463C7.93507 11.2494 7.85818 11.3365 7.76235 11.3973C7.66651 11.4581 7.55563 11.4903 7.44248 11.4902H1.78993C1.63075 11.4902 1.47809 11.4262 1.36554 11.3123C1.25298 11.1985 1.18975 11.0441 1.18975 10.883V9.0616ZM17.995 7.54375L22.1963 4.94824V9.66875L18.5549 9.0616L17.995 7.54375Z"/>
</mask>
<path d="M15.0329 3.69836L15.584 2.8639L15.5839 2.8639L15.0329 3.69836ZM15.2543 3.96268L16.1717 3.56456L16.1717 3.56456L15.2543 3.96268ZM14.7046 3.59961V4.59961L14.7049 4.59961L14.7046 3.59961ZM11.4035 3.59961V2.59961H10.4035V3.59961H11.4035ZM11.4035 4.8139H10.4035V5.8139H11.4035V4.8139ZM14.3126 4.8139L15.23 4.4158L14.9688 3.8139H14.3126V4.8139ZM17.113 11.2667L17.6112 12.1338L18.3861 11.6885L18.0303 10.8686L17.113 11.2667ZM16.9439 11.4114L16.1648 10.7845L16.1642 10.7852L16.9439 11.4114ZM13.2227 16.0445V17.0445H13.7022L14.0024 16.6707L13.2227 16.0445ZM12.0596 16.0445L11.1831 16.5259L11.4679 17.0445H12.0596V16.0445ZM11.2256 14.5259V13.5259H9.5355L10.3491 15.0073L11.2256 14.5259ZM13.8665 13.9924L14.5776 14.6954L14.5776 14.6954L13.8665 13.9924ZM14.3938 12.7045H15.3938V11.7045H14.3938V12.7045ZM7.45529 12.9712L6.74412 12.2682L7.45529 12.9712ZM7.45529 14.2591L6.74412 14.9622L6.74412 14.9622L7.45529 14.2591ZM9.85235 14.5259L10.7289 14.0445L10.444 13.5259H9.85235V14.5259ZM10.6863 16.0445V17.0445H12.3764L11.5629 15.5631L10.6863 16.0445ZM7.75575 16.0445L6.76745 16.197L6.89823 17.0445H7.75575V16.0445ZM6.65978 13.8626L7.37095 13.1596L7.37095 13.1596L6.65978 13.8626ZM3.90121 12.7068V11.7068H3.90121L3.90121 12.7068ZM1.14264 13.8626L0.431468 13.1596L0.431467 13.1596L1.14264 13.8626ZM1.14264 19.4437L0.431468 20.1468H0.431468L1.14264 19.4437ZM6.65978 19.4437L7.37095 20.1468L7.37095 20.1467L6.65978 19.4437ZM7.75623 17.2588V16.2588H6.89802L6.76781 17.107L7.75623 17.2588ZM13.5084 17.2588V18.2588L13.509 18.2588L13.5084 17.2588ZM13.7664 17.1997L13.332 16.299L13.3319 16.299L13.7664 17.1997ZM13.9742 17.0341L13.1945 16.4079L13.194 16.4085L13.9742 17.0341ZM17.6369 12.474L18.5542 12.0759L17.8947 10.5561L16.8572 11.8477L17.6369 12.474ZM18.0048 13.3218L18.546 14.1627L19.2603 13.703L18.9222 12.9237L18.0048 13.3218ZM17.3403 13.861L16.6291 13.1579L17.3403 13.861ZM22.8574 13.861L23.5686 13.1579L23.5686 13.1579L22.8574 13.861ZM19.105 12.8353L18.1877 13.2334L18.5305 14.0233L19.3625 13.8016L19.105 12.8353ZM5.91384 16.0445V17.0445H7.25218L6.87283 15.761L5.91384 16.0445ZM5.91475 17.2588L6.87417 17.5408L7.251 16.2588H5.91475V17.2588ZM5.38659 18.1558L4.67543 17.4528L4.67542 17.4528L5.38659 18.1558ZM2.41582 18.1558L3.12699 17.4528L3.12699 17.4528L2.41582 18.1558ZM2.41582 15.1506L3.12699 15.8536L3.12699 15.8536L2.41582 15.1506ZM5.38659 15.1506L4.67542 15.8536L4.67543 15.8536L5.38659 15.1506ZM18.7448 15.0269L19.6621 14.6288L19.1241 13.389L18.0958 14.2661L18.7448 15.0269ZM18.6135 15.1489L19.3246 15.8519L19.3247 15.8519L18.6135 15.1489ZM19.5565 16.8973L20.4738 16.4993L20.4738 16.4992L19.5565 16.8973ZM19.8881 17.219L20.2551 16.2888L20.2551 16.2888L19.8881 17.219ZM20.3475 17.2093L20.7533 18.1233L20.7533 18.1233L20.3475 17.2093ZM20.6656 16.8739L21.5986 17.2336L21.5986 17.2336L20.6656 16.8739ZM20.656 16.4091L21.5734 16.0111L21.5733 16.011L20.656 16.4091ZM19.8457 14.542L19.7238 13.5494L18.3956 13.7125L18.9284 14.9401L19.8457 14.542ZM21.5842 18.1541L20.8731 17.4511V17.4511L21.5842 18.1541ZM18.6135 18.1541L19.3247 17.4511L19.3246 17.4511L18.6135 18.1541ZM14.359 7.84732L14.36 6.84732H14.359V7.84732ZM8.99216 11.4902L8.02137 11.7301L8.20921 12.4902H8.99216V11.4902ZM15.2233 11.4902V12.4902L15.2238 12.4902L15.2233 11.4902ZM15.5154 11.4132L15.0239 10.5424L15.0239 10.5424L15.5154 11.4132ZM15.8225 10.9103L16.8216 10.9548V10.9548L15.8225 10.9103ZM15.7599 10.6116L16.6564 10.1687L16.6564 10.1686L15.7599 10.6116ZM14.4094 7.87889L13.5128 8.32157L13.5129 8.32191L14.4094 7.87889ZM14.3887 7.85586L13.8579 8.70338L13.8579 8.70341L14.3887 7.85586ZM4.84908 8.45446L4.84943 7.45446H4.84908V8.45446ZM6.14864 8.75438L6.58611 7.85515L6.58611 7.85515L6.14864 8.75438ZM7.19161 9.59407L6.40717 10.2143L6.40764 10.2149L7.19161 9.59407ZM7.91183 10.5036L8.69595 9.88296L8.69579 9.88276L7.91183 10.5036ZM8.03965 10.8144L9.03338 10.7026V10.7026L8.03965 10.8144ZM7.44248 11.4902L7.44387 10.4902H7.44248V11.4902ZM1.36554 11.3123L2.07671 10.6093L2.07671 10.6093L1.36554 11.3123ZM22.1963 4.94824H23.1963V3.15502L21.6707 4.0975L22.1963 4.94824ZM17.995 7.54375L17.4694 6.693L16.7738 7.12274L17.0568 7.88986L17.995 7.54375ZM22.1963 9.66875L22.0318 10.6551L23.1963 10.8493V9.66875H22.1963ZM18.5549 9.0616L17.6167 9.40772L17.8177 9.95249L18.3905 10.048L18.5549 9.0616ZM14.4818 4.53281C14.4166 4.48973 14.3668 4.42951 14.337 4.3608L16.1717 3.56456C16.0481 3.27986 15.8445 3.03594 15.584 2.8639L14.4818 4.53281ZM14.7049 4.59961C14.6247 4.59964 14.5472 4.57598 14.4818 4.53281L15.5839 2.8639C15.3233 2.69178 15.0176 2.5995 14.7042 2.59961L14.7049 4.59961ZM11.4035 4.59961H14.7046V2.59961H11.4035V4.59961ZM12.4035 4.8139V3.59961H10.4035V4.8139H12.4035ZM14.3126 3.8139H11.4035V5.8139H14.3126V3.8139ZM18.0303 10.8686L15.23 4.4158L13.3953 5.21199L16.1956 11.6648L18.0303 10.8686ZM17.723 12.0382C17.6922 12.0766 17.6542 12.1091 17.6112 12.1338L16.6148 10.3996C16.4435 10.4981 16.2906 10.6282 16.1648 10.7845L17.723 12.0382ZM14.0024 16.6707L17.7236 12.0376L16.1642 10.7852L12.4431 15.4183L14.0024 16.6707ZM12.0596 17.0445H13.2227V15.0445H12.0596V17.0445ZM10.3491 15.0073L11.1831 16.5259L12.9361 15.5631L12.1021 14.0445L10.3491 15.0073ZM12.5933 13.5259H11.2256V15.5259H12.5933V13.5259ZM13.1553 13.2894C13.0043 13.4422 12.8019 13.5259 12.5933 13.5259V15.5259C13.3398 15.5259 14.0533 15.2258 14.5776 14.6954L13.1553 13.2894ZM13.3938 12.7045C13.3938 12.926 13.3067 13.1362 13.1553 13.2894L14.5776 14.6954C15.1015 14.1654 15.3938 13.4491 15.3938 12.7045H13.3938ZM8.09188 13.7045H14.3938V11.7045H8.09188V13.7045ZM8.16646 13.6742C8.14867 13.6922 8.12208 13.7045 8.09188 13.7045V11.7045C7.58415 11.7045 7.09958 11.9086 6.74412 12.2682L8.16646 13.6742ZM8.19161 13.6152C8.19161 13.6352 8.18387 13.6566 8.16646 13.6742L6.74412 12.2682C6.38905 12.6274 6.19161 13.1121 6.19161 13.6152H8.19161ZM8.16646 13.5561C8.18386 13.5737 8.19161 13.5952 8.19161 13.6152H6.19161C6.19161 14.1182 6.38905 14.603 6.74412 14.9622L8.16646 13.5561ZM8.09188 13.5259C8.12208 13.5259 8.14867 13.5381 8.16646 13.5561L6.74412 14.9622C7.09958 15.3217 7.58415 15.5259 8.09188 15.5259V13.5259ZM9.85235 13.5259H8.09188V15.5259H9.85235V13.5259ZM11.5629 15.5631L10.7289 14.0445L8.97583 15.0073L9.80983 16.5259L11.5629 15.5631ZM7.75575 17.0445H10.6863V15.0445H7.75575V17.0445ZM5.94861 14.5657C6.38703 15.0092 6.67244 15.5813 6.76745 16.197L8.74405 15.892C8.58561 14.8652 8.10905 13.9063 7.37095 13.1596L5.94861 14.5657ZM3.90121 13.7068C4.66691 13.7068 5.40362 14.0143 5.94861 14.5657L7.37095 13.1596C6.45271 12.2307 5.20483 11.7068 3.90121 11.7068V13.7068ZM1.85381 14.5657C2.3988 14.0143 3.1355 13.7068 3.90121 13.7068L3.90121 11.7068C2.59758 11.7068 1.34971 12.2307 0.431468 13.1596L1.85381 14.5657ZM1 16.6532C1 15.868 1.30843 15.1174 1.85381 14.5657L0.431467 13.1596C-0.48639 14.0881 -1 15.345 -1 16.6532H1ZM1.85381 18.7407C1.30843 18.189 1 17.4383 1 16.6532H-1C-1 17.9614 -0.486391 19.2183 0.431468 20.1468L1.85381 18.7407ZM3.90121 19.5996C3.1355 19.5996 2.3988 19.292 1.85381 18.7407L0.431468 20.1468C1.34971 21.0756 2.59758 21.5996 3.90121 21.5996V19.5996ZM5.94861 18.7407C5.40362 19.292 4.66691 19.5996 3.90121 19.5996V21.5996C5.20483 21.5996 6.45271 21.0756 7.37095 20.1468L5.94861 18.7407ZM6.76781 17.107C6.67316 17.7236 6.38758 18.2967 5.94861 18.7407L7.37095 20.1467C8.10997 19.3992 8.58681 18.4388 8.74465 17.4105L6.76781 17.107ZM13.5084 16.2588H7.75623V18.2588H13.5084V16.2588ZM13.3319 16.299C13.3864 16.2727 13.4465 16.2588 13.5078 16.2588L13.509 18.2588C13.7489 18.2586 13.9852 18.2044 14.2008 18.1004L13.3319 16.299ZM13.194 16.4085C13.2306 16.3629 13.2776 16.3252 13.332 16.299L14.2008 18.1004C14.4164 17.9964 14.6053 17.8456 14.7543 17.6597L13.194 16.4085ZM16.8572 11.8477L13.1945 16.4079L14.7538 17.6603L18.4165 13.1002L16.8572 11.8477ZM18.9222 12.9237L18.5542 12.0759L16.7195 12.8721L17.0875 13.7199L18.9222 12.9237ZM18.0515 14.564C18.2028 14.4109 18.3688 14.2767 18.546 14.1627L17.4637 12.4809C17.1639 12.6737 16.8838 12.9003 16.6291 13.1579L18.0515 14.564ZM17.1977 16.6515C17.1977 15.8664 17.5061 15.1157 18.0515 14.564L16.6291 13.1579C15.7113 14.0864 15.1977 15.3433 15.1977 16.6515H17.1977ZM18.0515 18.739C17.5061 18.1873 17.1977 17.4366 17.1977 16.6515H15.1977C15.1977 17.9597 15.7113 19.2166 16.6291 20.1451L18.0515 18.739ZM20.0989 19.5979C19.3332 19.5979 18.5965 19.2903 18.0515 18.739L16.6291 20.1451C17.5474 21.074 18.7952 21.5979 20.0989 21.5979V19.5979ZM22.1463 18.739C21.6013 19.2903 20.8646 19.5979 20.0989 19.5979V21.5979C21.4025 21.5979 22.6504 21.074 23.5686 20.1451L22.1463 18.739ZM23.0001 16.6515C23.0001 17.4366 22.6916 18.1873 22.1463 18.739L23.5686 20.1451C24.4865 19.2166 25.0001 17.9597 25.0001 16.6515H23.0001ZM22.1463 14.564C22.6916 15.1157 23.0001 15.8664 23.0001 16.6515H25.0001C25.0001 15.3433 24.4865 14.0864 23.5686 13.1579L22.1463 14.564ZM20.0989 13.7051C20.8646 13.7051 21.6013 14.0127 22.1463 14.564L23.5686 13.1579C22.6504 12.2291 21.4025 11.7051 20.0989 11.7051V13.7051ZM19.3625 13.8016C19.6009 13.738 19.8482 13.7051 20.0989 13.7051V11.7051C19.6728 11.7051 19.2524 11.7611 18.8474 11.869L19.3625 13.8016ZM14.337 4.3608L18.1877 13.2334L20.0223 12.4372L16.1717 3.56456L14.337 4.3608ZM3.90546 17.0445H5.91384V15.0445H3.90546V17.0445ZM4.19224 16.9253C4.11816 17.0003 4.01523 17.0445 3.90546 17.0445V15.0445C3.47733 15.0445 3.06908 15.2166 2.76989 15.5193L4.19224 16.9253ZM4.30527 16.6516C4.30527 16.7521 4.26592 16.8508 4.19224 16.9253L2.76989 15.5193C2.4711 15.8216 2.30527 16.2291 2.30527 16.6516H4.30527ZM4.19223 16.3779C4.26592 16.4525 4.30527 16.5511 4.30527 16.6516H2.30527C2.30527 17.0742 2.4711 17.4817 2.7699 17.784L4.19223 16.3779ZM3.90546 16.2588C4.01524 16.2588 4.11816 16.303 4.19223 16.3779L2.7699 17.784C3.06908 18.0866 3.47732 18.2588 3.90546 18.2588V16.2588ZM5.91475 16.2588H3.90546V18.2588H5.91475V16.2588ZM6.09776 18.8588C6.46502 18.4873 6.72949 18.033 6.87417 17.5408L4.95534 16.9768C4.90262 17.1561 4.80676 17.3199 4.67543 17.4528L6.09776 18.8588ZM3.90121 19.7782C4.7273 19.7782 5.51719 19.4461 6.09776 18.8588L4.67542 17.4528C4.4681 17.6625 4.18938 17.7782 3.90121 17.7782V19.7782ZM1.70465 18.8588C2.28523 19.4461 3.07512 19.7782 3.90121 19.7782V17.7782C3.61304 17.7782 3.33432 17.6625 3.12699 17.4528L1.70465 18.8588ZM0.800558 16.6532C0.800558 17.4783 1.12447 18.2719 1.70466 18.8588L3.12699 17.4528C2.91929 17.2426 2.80056 16.9552 2.80056 16.6532H0.800558ZM1.70466 14.4476C1.12447 15.0345 0.800558 15.8281 0.800558 16.6532H2.80056C2.80056 16.3511 2.91929 16.0637 3.12699 15.8536L1.70466 14.4476ZM3.90121 13.5282C3.07512 13.5282 2.28523 13.8603 1.70465 14.4476L3.12699 15.8536C3.33432 15.6439 3.61304 15.5282 3.90121 15.5282V13.5282ZM6.09776 14.4476C5.51719 13.8603 4.7273 13.5282 3.90121 13.5282V15.5282C4.18938 15.5282 4.4681 15.6439 4.67542 15.8536L6.09776 14.4476ZM6.87283 15.761C6.72786 15.2706 6.46389 14.8179 6.09776 14.4476L4.67543 15.8536C4.80636 15.9861 4.90204 16.1492 4.95486 16.3279L6.87283 15.761ZM18.0958 14.2661C18.029 14.323 17.9645 14.383 17.9023 14.4459L19.3247 15.8519C19.3469 15.8294 19.37 15.808 19.3937 15.7877L18.0958 14.2661ZM20.4738 16.4992L19.6621 14.6288L17.8274 15.425L18.6391 17.2954L20.4738 16.4992ZM20.2551 16.2888C20.3558 16.3285 20.4332 16.4056 20.4738 16.4993L18.6391 17.2953C18.8077 17.6839 19.1237 17.9925 19.5211 18.1493L20.2551 16.2888ZM19.9417 16.2953C20.0408 16.2514 20.154 16.2489 20.2551 16.2888L19.5211 18.1492C19.9189 18.3062 20.3626 18.2968 20.7533 18.1233L19.9417 16.2953ZM19.7325 16.5141C19.7691 16.4191 19.843 16.3392 19.9417 16.2954L20.7533 18.1233C21.1436 17.95 21.4463 17.6287 21.5986 17.2336L19.7325 16.5141ZM19.7386 16.8071C19.6981 16.7138 19.696 16.6088 19.7325 16.5141L21.5986 17.2336C21.7509 16.8388 21.7419 16.3994 21.5734 16.0111L19.7386 16.8071ZM18.9284 14.9401L19.7387 16.8072L21.5733 16.011L20.763 14.1439L18.9284 14.9401ZM20.0989 13.5265C19.9729 13.5265 19.8476 13.5342 19.7238 13.5494L19.9676 15.5345C20.0109 15.5292 20.0547 15.5265 20.0989 15.5265V13.5265ZM22.2954 14.4459C21.7148 13.8586 20.9249 13.5265 20.0989 13.5265V15.5265C20.387 15.5265 20.6658 15.6422 20.8731 15.8519L22.2954 14.4459ZM23.1995 16.6515C23.1995 15.8264 22.8756 15.0328 22.2954 14.4459L20.8731 15.8519C21.0808 16.062 21.1995 16.3494 21.1995 16.6515H23.1995ZM22.2954 18.8571C22.8756 18.2702 23.1995 17.4766 23.1995 16.6515H21.1995C21.1995 16.9536 21.0808 17.241 20.8731 17.4511L22.2954 18.8571ZM20.0989 19.7765C20.9249 19.7765 21.7148 19.4444 22.2954 18.8571L20.8731 17.4511C20.6658 17.6608 20.387 17.7765 20.0989 17.7765V19.7765ZM17.9023 18.8571C18.4829 19.4444 19.2728 19.7765 20.0989 19.7765V17.7765C19.8107 17.7765 19.532 17.6608 19.3247 17.4511L17.9023 18.8571ZM16.9982 16.6515C16.9982 17.4766 17.3221 18.2702 17.9023 18.8571L19.3246 17.4511C19.1169 17.241 18.9982 16.9536 18.9982 16.6515H16.9982ZM17.9023 14.4459C17.3221 15.0328 16.9982 15.8264 16.9982 16.6515H18.9982C18.9982 16.3494 19.1169 16.062 19.3246 15.8519L17.9023 14.4459ZM11.804 8.84732H14.359V6.84732H11.804V8.84732ZM9.96296 11.2503C9.65784 10.0157 10.5826 8.84732 11.804 8.84732V6.84732C9.25391 6.84732 7.4118 9.26355 8.02137 11.7301L9.96296 11.2503ZM15.2233 10.4902H8.99216V12.4902H15.2233V10.4902ZM15.0239 10.5424C15.084 10.5085 15.1525 10.4902 15.2228 10.4902L15.2238 12.4902C15.4986 12.49 15.7683 12.4188 16.007 12.2841L15.0239 10.5424ZM14.8801 10.6809C14.9147 10.6243 14.9638 10.5763 15.0239 10.5424L16.007 12.2841C16.2456 12.1494 16.4449 11.956 16.587 11.7234L14.8801 10.6809ZM14.8235 10.8659C14.8264 10.8011 14.8456 10.7375 14.8801 10.6809L16.587 11.7234C16.729 11.4908 16.8095 11.2263 16.8216 10.9548L14.8235 10.8659ZM14.8633 11.0545C14.8341 10.9955 14.8207 10.9306 14.8235 10.8659L16.8216 10.9548C16.8336 10.6834 16.777 10.4129 16.6564 10.1687L14.8633 11.0545ZM13.5129 8.32191L14.8633 11.0547L16.6564 10.1686L15.306 7.43587L13.5129 8.32191ZM13.8579 8.70341C13.7086 8.60992 13.5896 8.47726 13.5128 8.32157L15.3061 7.43621C15.2199 7.26156 15.0865 7.11296 14.9194 7.00832L13.8579 8.70341ZM14.358 8.84732C14.1805 8.84713 14.0073 8.79695 13.8579 8.70338L14.9194 7.00834C14.7522 6.90363 14.5585 6.84752 14.36 6.84732L14.358 8.84732ZM0.654367 7.92927C0.35557 8.23153 0.189746 8.63906 0.189746 9.0616H2.18975C2.18975 9.1621 2.15039 9.26077 2.07671 9.33531L0.654367 7.92927ZM1.78993 7.45446C1.36179 7.45446 0.95355 7.62662 0.654367 7.92927L2.07671 9.33531C2.00264 9.41024 1.89971 9.45446 1.78993 9.45446V7.45446ZM4.84908 7.45446H1.78993V9.45446H4.84908V7.45446ZM6.58611 7.85515C6.04474 7.59178 5.45117 7.45467 4.84943 7.45446L4.84873 9.45446C5.14687 9.45456 5.44158 9.52246 5.71118 9.65362L6.58611 7.85515ZM7.97605 8.97386C7.60227 8.50111 7.12744 8.11849 6.58611 7.85515L5.71118 9.65362C5.98082 9.7848 6.21888 9.97613 6.40717 10.2143L7.97605 8.97386ZM8.69579 9.88276L7.97557 8.97326L6.40764 10.2149L7.12787 11.1244L8.69579 9.88276ZM9.03338 10.7026C8.99977 10.4039 8.88328 10.1196 8.69595 9.88296L7.12771 11.1242C7.08181 11.0662 7.05393 10.9975 7.04591 10.9262L9.03338 10.7026ZM8.88716 11.5759C9.01653 11.3039 9.06698 11.0013 9.03338 10.7026L7.04591 10.9262C7.0379 10.8549 7.04986 10.7824 7.0811 10.7167L8.88716 11.5759ZM8.29832 12.2415C8.55413 12.0791 8.75774 11.8479 8.88716 11.5759L7.0811 10.7167C7.11239 10.6509 7.16224 10.5938 7.22638 10.5531L8.29832 12.2415ZM7.44109 12.4902C7.74519 12.4906 8.04239 12.404 8.29832 12.2415L7.22638 10.5531C7.29064 10.5123 7.36607 10.4901 7.44387 10.4902L7.44109 12.4902ZM1.78993 12.4902H7.44248V10.4902H1.78993V12.4902ZM0.654367 12.0154C0.953547 12.318 1.36179 12.4902 1.78993 12.4902V10.4902C1.89972 10.4902 2.00264 10.5344 2.07671 10.6093L0.654367 12.0154ZM0.189746 10.883C0.189746 11.3056 0.355572 11.7131 0.654368 12.0154L2.07671 10.6093C2.15039 10.6839 2.18975 10.7825 2.18975 10.883H0.189746ZM0.189746 9.0616V10.883H2.18975V9.0616H0.189746ZM21.6707 4.0975L17.4694 6.693L18.5205 8.39449L22.7218 5.79899L21.6707 4.0975ZM23.1963 9.66875V4.94824H21.1963V9.66875H23.1963ZM18.3905 10.048L22.0318 10.6551L22.3607 8.68236L18.7194 8.07522L18.3905 10.048ZM17.0568 7.88986L17.6167 9.40772L19.4931 8.71548L18.9331 7.19763L17.0568 7.88986Z" fill="#FBFBFB" mask="url(#path-2-inside-1_2770_14729)"/>
</g>
</g>
<defs>
<filter id="filter0_d_2770_14729" x="-4" y="3.59961" width="32" height="25" filterUnits="userSpaceOnUse" color-interpolation-filters="sRGB">
<feFlood flood-opacity="0" result="BackgroundImageFix"/>
<feColorMatrix in="SourceAlpha" type="matrix" values="0 0 0 0 0 0 0 0 0 0 0 0 0 0 0 0 0 0 127 0" result="hardAlpha"/>
<feOffset dy="4"/>
<feGaussianBlur stdDeviation="2"/>
<feComposite in2="hardAlpha" operator="out"/>
<feColorMatrix type="matrix" values="0 0 0 0 0 0 0 0 0 0 0 0 0 0 0 0 0 0 0.25 0"/>
<feBlend mode="normal" in2="BackgroundImageFix" result="effect1_dropShadow_2770_14729"/>
<feBlend mode="normal" in="SourceGraphic" in2="effect1_dropShadow_2770_14729" result="shape"/>
</filter>
<clipPath id="clip0_2770_14729">
<rect width="24" height="24" rx="5" fill="white"/>
</clipPath>
</defs>
</svg>
