<svg width="17" height="17" viewBox="0 0 17 17" fill="none" xmlns="http://www.w3.org/2000/svg">
<path d="M6.72913 9.91649C7.90273 9.91649 8.85413 10.8679 8.85413 12.0415C8.85413 13.2151 7.90273 14.1665 6.72913 14.1665C5.55552 14.1665 4.60413 13.2151 4.60413 12.0415C4.60413 10.8679 5.55552 9.91649 6.72913 9.91649Z" stroke="#9C9C9C" stroke-width="1.5"/>
<path d="M10.2709 2.83348C9.09727 2.83348 8.14587 3.78487 8.14587 4.95848C8.14587 6.13208 9.09727 7.08348 10.2709 7.08348C11.4445 7.08348 12.3959 6.13208 12.3959 4.95848C12.3959 3.78487 11.4445 2.83348 10.2709 2.83348Z" stroke="#9C9C9C" stroke-width="1.5"/>
<path d="M10.625 12.0122L15.5833 12.0122" stroke="#9C9C9C" stroke-width="1.5" stroke-linecap="round"/>
<path d="M6.375 4.9292L1.41667 4.9292" stroke="#9C9C9C" stroke-width="1.5" stroke-linecap="round"/>
<path d="M1.41663 12.0122L2.83329 12.0122" stroke="#9C9C9C" stroke-width="1.5" stroke-linecap="round"/>
<path d="M15.5834 4.9292L14.1667 4.9292" stroke="#9C9C9C" stroke-width="1.5" stroke-linecap="round"/>
</svg>
