<svg width="16" height="16" viewBox="0 0 16 16" fill="none" xmlns="http://www.w3.org/2000/svg">
<path d="M8.41514 11.3796C8.30858 11.4961 8.15793 11.5625 8 11.5625C7.84208 11.5625 7.69142 11.4961 7.58486 11.3796L4.58486 8.09831C4.37524 7.86903 4.39117 7.51323 4.62044 7.30361C4.84972 7.09398 5.20552 7.10992 5.41514 7.33919L7.4375 9.55115V1.25C7.4375 0.93934 7.68934 0.6875 8 0.6875C8.31066 0.6875 8.5625 0.93934 8.5625 1.25V9.55115L10.5849 7.33919C10.7945 7.10992 11.1503 7.09398 11.3796 7.30361C11.6088 7.51323 11.6248 7.86903 11.4151 8.09831L8.41514 11.3796Z" fill="#262626"/>
<path d="M1.8125 10.25C1.8125 9.93934 1.56066 9.6875 1.25 9.6875C0.939341 9.6875 0.6875 9.93934 0.6875 10.25V10.2912C0.687485 11.3168 0.687473 12.1436 0.774893 12.7938C0.865656 13.4689 1.05983 14.0373 1.51126 14.4887C1.9627 14.9402 2.53111 15.1343 3.20619 15.2251C3.85641 15.3125 4.68316 15.3125 5.70885 15.3125H10.2912C11.3168 15.3125 12.1436 15.3125 12.7938 15.2251C13.4689 15.1343 14.0373 14.9402 14.4887 14.4887C14.9402 14.0373 15.1343 13.4689 15.2251 12.7938C15.3125 12.1436 15.3125 11.3168 15.3125 10.2912V10.25C15.3125 9.93934 15.0607 9.6875 14.75 9.6875C14.4393 9.6875 14.1875 9.93934 14.1875 10.25C14.1875 11.3266 14.1863 12.0774 14.1101 12.6439C14.0362 13.1942 13.9008 13.4857 13.6932 13.6932C13.4857 13.9008 13.1942 14.0361 12.6439 14.1101C12.0774 14.1863 11.3266 14.1875 10.25 14.1875H5.75C4.67344 14.1875 3.9226 14.1863 3.35609 14.1101C2.80576 14.0361 2.51433 13.9008 2.30676 13.6932C2.09919 13.4857 1.96385 13.1942 1.88986 12.6439C1.8137 12.0774 1.8125 11.3266 1.8125 10.25Z" fill="#262626"/>
</svg>
