<svg width="30" height="26" viewBox="0 0 30 26" fill="none" xmlns="http://www.w3.org/2000/svg">
<path d="M24.3337 1H5.66699C3.78137 1 2.83856 1 2.25278 1.5496C1.66699 2.09919 1.66699 2.98376 1.66699 4.75288V5.67264C1.66699 7.05643 1.66699 7.74832 2.01313 8.32189C2.35926 8.89546 2.99162 9.25144 4.25635 9.9634L8.14038 12.1498C8.98894 12.6275 9.41322 12.8664 9.71701 13.1301C10.3496 13.6793 10.7391 14.3247 10.9156 15.1162C11.0003 15.4963 11.0003 15.9411 11.0003 16.8306L11.0003 20.3899C11.0003 21.6026 11.0003 22.209 11.3362 22.6817C11.6721 23.1544 12.2687 23.3876 13.4619 23.8541C15.9667 24.8333 17.2191 25.3229 18.1097 24.7658C19.0003 24.2088 19.0003 22.9358 19.0003 20.3899V16.8306C19.0003 15.9411 19.0003 15.4963 19.0851 15.1162C19.2616 14.3247 19.651 13.6793 20.2836 13.1301C20.5874 12.8664 21.0117 12.6275 21.8603 12.1498L25.7443 9.9634C27.009 9.25144 27.6414 8.89546 27.9875 8.32189C28.3337 7.74832 28.3337 7.05643 28.3337 5.67264V4.75288C28.3337 2.98376 28.3337 2.09919 27.7479 1.5496C27.1621 1 26.2193 1 24.3337 1Z" stroke="#FBFBFB" stroke-width="2"/>
</svg>
