<svg width="24" height="16" viewBox="0 0 24 16" fill="none" xmlns="http://www.w3.org/2000/svg">
<path d="M0 2C0 0.89543 0.895431 0 2 0H22C23.1046 0 24 0.895431 24 2V5.2H0V2Z" fill="#FF9933"/>
<rect width="24" height="5.6" transform="translate(0 5.2002)" fill="white"/>
<path d="M0 10.7998H24V13.9998C24 15.1044 23.1046 15.9998 22 15.9998H2C0.89543 15.9998 0 15.1044 0 13.9998V10.7998Z" fill="#138808"/>
<rect width="4.72131" height="4.8" transform="translate(9.83594 5.59961)" fill="#FBFBFB"/>
<ellipse cx="12.1966" cy="7.99942" rx="0.398059" ry="0.404693" fill="#000080"/>
<path d="M14.2211 8.00003C14.2211 9.14305 13.3108 10.0626 12.1965 10.0626C11.0822 10.0626 10.1719 9.14305 10.1719 8.00003C10.1719 6.85701 11.0822 5.9375 12.1965 5.9375C13.3108 5.9375 14.2211 6.85701 14.2211 8.00003Z" stroke="#000080" stroke-width="0.5"/>
<ellipse cx="0.113764" cy="0.115595" rx="0.113764" ry="0.115595" transform="matrix(0.991161 -0.132664 0.128422 0.99172 11.8093 5.89453)" fill="#000080"/>
<ellipse cx="0.113764" cy="0.115595" rx="0.113764" ry="0.115595" transform="matrix(0.991161 -0.132664 0.128422 0.99172 12.3289 9.90625)" fill="#000080"/>
<ellipse cx="0.11514" cy="0.114224" rx="0.11514" ry="0.114224" transform="matrix(-0.378002 0.927787 -0.919892 -0.387382 14.1841 8.71191)" fill="#000080"/>
<ellipse cx="0.11514" cy="0.114224" rx="0.11514" ry="0.114224" transform="matrix(-0.378002 0.927787 -0.919892 -0.387382 10.5063 7.16309)" fill="#000080"/>
<ellipse cx="0.11514" cy="0.114224" rx="0.11514" ry="0.114224" transform="matrix(0.601315 0.796709 -0.789929 0.616236 13.7966 6.60547)" fill="#000080"/>
<ellipse cx="0.11514" cy="0.114224" rx="0.11514" ry="0.114224" transform="matrix(0.601315 0.796709 -0.789929 0.616236 10.6387 9.06934)" fill="#000080"/>
<circle cx="0.114683" cy="0.114683" r="0.114683" transform="matrix(0.78677 0.613771 -0.60371 0.799882 13.3872 6.23242)" fill="#000080"/>
<circle cx="0.114683" cy="0.114683" r="0.114683" transform="matrix(0.78677 0.613771 -0.60371 0.799882 10.9639 9.44336)" fill="#000080"/>
<ellipse cx="0.113887" cy="0.115473" rx="0.113887" ry="0.115473" transform="matrix(-0.922613 0.388528 -0.376911 -0.92511 13.1069 9.93164)" fill="#000080"/>
<ellipse cx="0.113887" cy="0.115473" rx="0.113887" ry="0.115473" transform="matrix(-0.922613 0.388528 -0.376911 -0.92511 11.5835 6.19336)" fill="#000080"/>
<ellipse cx="0.115473" cy="0.113887" rx="0.115473" ry="0.113887" transform="matrix(-0.128557 0.992765 -0.990086 -0.13252 14.2974 8.16406)" fill="#000080"/>
<ellipse cx="0.115473" cy="0.113887" rx="0.115473" ry="0.113887" transform="matrix(-0.128557 0.992765 -0.990086 -0.13252 10.3508 7.63574)" fill="#000080"/>
<ellipse cx="0.114224" cy="0.11514" rx="0.114224" ry="0.11514" transform="matrix(0.919892 0.387382 -0.378002 0.927787 12.8967 5.97949)" fill="#000080"/>
<ellipse cx="0.114224" cy="0.11514" rx="0.114224" ry="0.11514" transform="matrix(0.919892 0.387382 -0.378002 0.927787 11.3733 9.71777)" fill="#000080"/>
<ellipse cx="0.114224" cy="0.11514" rx="0.114224" ry="0.11514" transform="matrix(-0.789929 0.616236 -0.601315 -0.796709 13.5676 9.62598)" fill="#000080"/>
<ellipse cx="0.114224" cy="0.11514" rx="0.114224" ry="0.11514" transform="matrix(-0.789929 0.616236 -0.601315 -0.796709 11.1445 6.41602)" fill="#000080"/>
<ellipse cx="0.115595" cy="0.113764" rx="0.115595" ry="0.113764" transform="matrix(0.128422 0.99172 -0.991161 0.132664 14.2678 7.60547)" fill="#000080"/>
<ellipse cx="0.115595" cy="0.113764" rx="0.115595" ry="0.113764" transform="matrix(0.128422 0.99172 -0.991161 0.132664 10.3213 8.13379)" fill="#000080"/>
<ellipse cx="0.113887" cy="0.115473" rx="0.113887" ry="0.115473" transform="matrix(0.990086 0.13252 -0.128557 0.992765 12.3584 5.86426)" fill="#000080"/>
<ellipse cx="0.113887" cy="0.115473" rx="0.113887" ry="0.115473" transform="matrix(0.990086 0.13252 -0.128557 0.992765 11.8389 9.87598)" fill="#000080"/>
<circle cx="0.114683" cy="0.114683" r="0.114683" transform="matrix(-0.60371 0.799882 -0.78677 -0.613771 13.9351 9.20996)" fill="#000080"/>
<circle cx="0.114683" cy="0.114683" r="0.114683" transform="matrix(-0.60371 0.799882 -0.78677 -0.613771 10.7771 6.74707)" fill="#000080"/>
<ellipse cx="0.115473" cy="0.113887" rx="0.115473" ry="0.113887" transform="matrix(0.376911 0.92511 -0.922613 0.388528 14.0969 7.07422)" fill="#000080"/>
<ellipse cx="0.115473" cy="0.113887" rx="0.115473" ry="0.113887" transform="matrix(0.376911 0.92511 -0.922613 0.388528 10.4194 8.62305)" fill="#000080"/>
<g clip-path="url(#clip0_1921_9264)">
<path d="M12.1761 10.0149L12.1079 8.80079L12.1761 8.22266L12.2444 8.80079L12.1761 10.0149Z" fill="#000080"/>
</g>
<g clip-path="url(#clip1_1921_9264)">
<path d="M12.1991 5.96658L12.2673 7.18066L12.1991 7.75879L12.1309 7.18066L12.1991 5.96658Z" fill="#000080"/>
</g>
<g clip-path="url(#clip2_1921_9264)">
<path d="M10.4696 6.96959L11.5379 7.51655L11.9963 7.8657L11.4697 7.63671L10.4696 6.96959Z" fill="#000080"/>
</g>
<g clip-path="url(#clip3_1921_9264)">
<path d="M13.9056 9.01283L12.8373 8.46587L12.379 8.11672L12.9056 8.34571L13.9056 9.01283Z" fill="#000080"/>
</g>
<g clip-path="url(#clip4_1921_9264)">
<path d="M10.4585 8.99227L11.4586 8.32515L11.9852 8.09617L11.5268 8.44532L10.4585 8.99227Z" fill="#000080"/>
</g>
<g clip-path="url(#clip5_1921_9264)">
<path d="M13.917 6.98917L12.9169 7.65629L12.3903 7.88528L12.8487 7.53613L13.917 6.98917Z" fill="#000080"/>
</g>
<g clip-path="url(#clip6_1921_9264)">
<path d="M10.7721 9.41452L11.5683 8.50698L12.0186 8.14723L11.6648 8.60509L10.7721 9.41452Z" fill="#000080"/>
</g>
<g clip-path="url(#clip7_1921_9264)">
<path d="M13.6031 6.56888L12.807 7.47642L12.3566 7.83617L12.7104 7.37831L13.6031 6.56888Z" fill="#000080"/>
</g>
<g clip-path="url(#clip8_1921_9264)">
<path d="M11.6834 6.0341L12.0584 7.18886L12.1396 7.76525L11.9266 7.22477L11.6834 6.0341Z" fill="#000080"/>
</g>
<g clip-path="url(#clip9_1921_9264)">
<path d="M12.6916 9.94832L12.3166 8.79356L12.2354 8.21717L12.4484 8.75765L12.6916 9.94832Z" fill="#000080"/>
</g>
<g clip-path="url(#clip10_1921_9264)">
<path d="M10.268 7.45643L11.4392 7.70365L11.9708 7.92029L11.4038 7.83767L10.268 7.45643Z" fill="#000080"/>
</g>
<g clip-path="url(#clip11_1921_9264)">
<path d="M14.107 8.52696L12.9358 8.27975L12.4042 8.06311L12.9712 8.14573L14.107 8.52696Z" fill="#000080"/>
</g>
<g clip-path="url(#clip12_1921_9264)">
<path d="M11.1825 9.73812L11.7205 8.652L12.064 8.18602L11.8387 8.72138L11.1825 9.73812Z" fill="#000080"/>
</g>
<g clip-path="url(#clip13_1921_9264)">
<path d="M13.1925 6.24431L12.6545 7.33042L12.311 7.79641L12.5363 7.26104L13.1925 6.24431Z" fill="#000080"/>
</g>
<g clip-path="url(#clip14_1921_9264)">
<path d="M11.2021 6.23255L11.8583 7.24928L12.0835 7.78465L11.7401 7.31866L11.2021 6.23255Z" fill="#000080"/>
</g>
<g clip-path="url(#clip15_1921_9264)">
<path d="M13.1729 9.7489L12.5167 8.73216L12.2915 8.1968L12.6349 8.66279L13.1729 9.7489Z" fill="#000080"/>
</g>
<g clip-path="url(#clip16_1921_9264)">
<path d="M10.1974 7.97945L11.3915 7.91008L11.9602 7.97945L11.3915 8.04883L10.1974 7.97945Z" fill="#000080"/>
</g>
<g clip-path="url(#clip17_1921_9264)">
<path d="M14.1779 8.00297L12.9837 8.07235L12.415 8.00297L12.9837 7.93359L14.1779 8.00297Z" fill="#000080"/>
</g>
<g clip-path="url(#clip18_1921_9264)">
<path d="M11.6617 9.94268L11.9048 8.75201L12.1179 8.21154L12.0367 8.78793L11.6617 9.94268Z" fill="#000080"/>
</g>
<g clip-path="url(#clip19_1921_9264)">
<path d="M12.7138 6.03974L12.4707 7.23041L12.2576 7.77089L12.3388 7.1945L12.7138 6.03974Z" fill="#000080"/>
</g>
<g clip-path="url(#clip20_1921_9264)">
<path d="M10.7881 6.5528L11.6807 7.36223L12.0346 7.82008L11.5842 7.46034L10.7881 6.5528Z" fill="#000080"/>
</g>
<g clip-path="url(#clip21_1921_9264)">
<path d="M13.5869 9.42962L12.6943 8.6202L12.3404 8.16234L12.7908 8.52208L13.5869 9.42962Z" fill="#000080"/>
</g>
<g clip-path="url(#clip22_1921_9264)">
<path d="M10.2622 8.50427L11.3981 8.12303L11.965 8.04041L11.4334 8.25705L10.2622 8.50427Z" fill="#000080"/>
</g>
<g clip-path="url(#clip23_1921_9264)">
<path d="M14.113 7.47815L12.9772 7.85939L12.4102 7.94201L12.9419 7.72537L14.113 7.47815Z" fill="#000080"/>
</g>
<defs>
<clipPath id="clip0_1921_9264">
<rect width="0.682387" height="1.85002" fill="white" transform="matrix(-1 0 0 1 12.5288 8.19336)"/>
</clipPath>
<clipPath id="clip1_1921_9264">
<rect width="0.682387" height="1.85002" fill="white" transform="matrix(1 0 0 -1 11.8464 7.78809)"/>
</clipPath>
<clipPath id="clip2_1921_9264">
<rect width="0.690934" height="1.82733" fill="white" transform="matrix(0.493815 -0.869567 -0.86241 -0.506211 11.8447 8.19043)"/>
</clipPath>
<clipPath id="clip3_1921_9264">
<rect width="0.690934" height="1.82733" fill="white" transform="matrix(-0.493815 0.869567 0.86241 0.506211 12.5305 7.79199)"/>
</clipPath>
<clipPath id="clip4_1921_9264">
<rect width="0.690934" height="1.82733" fill="white" transform="matrix(-0.493815 -0.869567 -0.86241 0.506211 12.186 8.39258)"/>
</clipPath>
<clipPath id="clip5_1921_9264">
<rect width="0.690934" height="1.82733" fill="white" transform="matrix(0.493815 0.869567 0.86241 -0.506211 12.1895 7.58887)"/>
</clipPath>
<clipPath id="clip6_1921_9264">
<rect width="0.688097" height="1.83492" fill="white" transform="matrix(-0.701239 -0.712926 -0.701239 0.712926 12.2881 8.37988)"/>
</clipPath>
<clipPath id="clip7_1921_9264">
<rect width="0.688097" height="1.83492" fill="white" transform="matrix(0.701239 0.712926 0.701239 -0.712926 12.0872 7.60352)"/>
</clipPath>
<clipPath id="clip8_1921_9264">
<rect width="0.683154" height="1.84801" fill="white" transform="matrix(0.96484 -0.262837 -0.254854 -0.96698 11.8064 7.88574)"/>
</clipPath>
<clipPath id="clip9_1921_9264">
<rect width="0.683154" height="1.84801" fill="white" transform="matrix(-0.96484 0.262837 0.254854 0.96698 12.5686 8.09668)"/>
</clipPath>
<clipPath id="clip10_1921_9264">
<rect width="0.693003" height="1.82175" fill="white" transform="matrix(0.254854 -0.96698 -0.96484 -0.262837 11.907 8.27441)"/>
</clipPath>
<clipPath id="clip11_1921_9264">
<rect width="0.693003" height="1.82175" fill="white" transform="matrix(-0.254854 0.96698 0.96484 0.262837 12.468 7.70898)"/>
</clipPath>
<clipPath id="clip12_1921_9264">
<rect width="0.685248" height="1.84249" fill="white" transform="matrix(-0.86241 -0.506211 -0.493815 0.869567 12.3835 8.33984)"/>
</clipPath>
<clipPath id="clip13_1921_9264">
<rect width="0.685248" height="1.84249" fill="white" transform="matrix(0.86241 0.506211 0.493815 -0.869567 11.9915 7.64258)"/>
</clipPath>
<clipPath id="clip14_1921_9264">
<rect width="0.685248" height="1.84249" fill="white" transform="matrix(0.86241 -0.506211 -0.493815 -0.869567 11.7925 7.98926)"/>
</clipPath>
<clipPath id="clip15_1921_9264">
<rect width="0.685248" height="1.84249" fill="white" transform="matrix(-0.86241 0.506211 0.493815 0.869567 12.5825 7.99219)"/>
</clipPath>
<clipPath id="clip16_1921_9264">
<rect width="0.693759" height="1.8197" fill="white" transform="matrix(3.63076e-08 -1 -1 -3.75279e-08 11.9885 8.33789)"/>
</clipPath>
<clipPath id="clip17_1921_9264">
<rect width="0.693759" height="1.8197" fill="white" transform="matrix(-3.63076e-08 1 1 3.75279e-08 12.3867 7.64453)"/>
</clipPath>
<clipPath id="clip18_1921_9264">
<rect width="0.683154" height="1.84801" fill="white" transform="matrix(-0.96484 -0.262837 -0.254854 0.96698 12.4658 8.27637)"/>
</clipPath>
<clipPath id="clip19_1921_9264">
<rect width="0.683154" height="1.84801" fill="white" transform="matrix(0.96484 0.262837 0.254854 -0.96698 11.9097 7.70605)"/>
</clipPath>
<clipPath id="clip20_1921_9264">
<rect width="0.688097" height="1.83492" fill="white" transform="matrix(0.701239 -0.712926 -0.701239 -0.712926 11.8054 8.09375)"/>
</clipPath>
<clipPath id="clip21_1921_9264">
<rect width="0.688097" height="1.83492" fill="white" transform="matrix(-0.701239 0.712926 0.701239 0.712926 12.5696 7.88867)"/>
</clipPath>
<clipPath id="clip22_1921_9264">
<rect width="0.693003" height="1.82175" fill="white" transform="matrix(-0.254854 -0.96698 -0.96484 0.262837 12.0837 8.37891)"/>
</clipPath>
<clipPath id="clip23_1921_9264">
<rect width="0.693003" height="1.82175" fill="white" transform="matrix(0.254854 0.96698 0.96484 -0.262837 12.2915 7.60352)"/>
</clipPath>
</defs>
</svg>
