<svg width="14" height="15" viewBox="0 0 14 15" fill="none" xmlns="http://www.w3.org/2000/svg">
<path d="M7.00008 10.854C7.24171 10.854 7.43758 10.6581 7.43758 10.4165V6.9165C7.43758 6.67488 7.24171 6.479 7.00008 6.479C6.75846 6.479 6.56258 6.67488 6.56258 6.9165V10.4165C6.56258 10.6581 6.75846 10.854 7.00008 10.854Z" fill="#9C9C9C"/>
<path d="M7.00008 4.58317C7.32225 4.58317 7.58342 4.84434 7.58342 5.1665C7.58342 5.48867 7.32225 5.74984 7.00008 5.74984C6.67792 5.74984 6.41675 5.48867 6.41675 5.1665C6.41675 4.84434 6.67792 4.58317 7.00008 4.58317Z" fill="#9C9C9C"/>
<path fill-rule="evenodd" clip-rule="evenodd" d="M0.729248 7.49984C0.729248 4.03655 3.5368 1.229 7.00008 1.229C10.4634 1.229 13.2709 4.03655 13.2709 7.49984C13.2709 10.9631 10.4634 13.7707 7.00008 13.7707C3.5368 13.7707 0.729248 10.9631 0.729248 7.49984ZM7.00008 2.104C4.02005 2.104 1.60425 4.5198 1.60425 7.49984C1.60425 10.4799 4.02005 12.8957 7.00008 12.8957C9.98012 12.8957 12.3959 10.4799 12.3959 7.49984C12.3959 4.5198 9.98012 2.104 7.00008 2.104Z" fill="#9C9C9C"/>
</svg>
