<svg width="20" height="20" viewBox="0 0 20 20" fill="none" xmlns="http://www.w3.org/2000/svg">
<path fill-rule="evenodd" clip-rule="evenodd" d="M15.3032 2.5481C15.6484 2.5481 15.9282 2.82792 15.9282 3.1731V6.70863C15.9282 7.05381 15.6484 7.33363 15.3032 7.33363H11.7677C11.4225 7.33363 11.1427 7.05381 11.1427 6.70863C11.1427 6.36345 11.4225 6.08363 11.7677 6.08363H13.7347C11.3635 4.2144 7.9155 4.37363 5.72782 6.56132C3.3684 8.92073 3.3684 12.7461 5.72782 15.1055C8.08723 17.4649 11.9126 17.4649 14.272 15.1055C15.8527 13.5248 16.3752 11.2857 15.8365 9.26831C15.7474 8.93482 15.9456 8.59227 16.2791 8.50321C16.6126 8.41415 16.9551 8.61231 17.0442 8.9458C17.6933 11.3766 17.0649 14.0804 15.1559 15.9894C12.3083 18.837 7.6915 18.837 4.84393 15.9894C1.99636 13.1418 1.99636 8.52501 4.84393 5.67743C7.53728 2.98409 11.8134 2.83821 14.6782 5.23981V3.1731C14.6782 2.82792 14.958 2.5481 15.3032 2.5481Z" fill="#FBFBFB"/>
</svg>
