<svg width="17" height="17" viewBox="0 0 17 17" fill="none" xmlns="http://www.w3.org/2000/svg">
<g opacity="0.4">
<path d="M9.38585 10.7711V6.24219H8.27908V10.7711C7.90985 10.9016 7.59866 11.1585 7.4005 11.4963C7.20235 11.8341 7.12999 12.2311 7.19621 12.617C7.26244 13.003 7.46298 13.3532 7.7624 13.6056C8.06182 13.858 8.44084 13.9965 8.83246 13.9965C9.22409 13.9965 9.6031 13.858 9.90252 13.6056C10.2019 13.3532 10.4025 13.003 10.4687 12.617C10.5349 12.2311 10.4626 11.8341 10.2644 11.4963C10.0663 11.1585 9.75507 10.9016 9.38585 10.7711Z" fill="white"/>
<path d="M8.83243 16.2033C8.06985 16.2041 7.32402 15.9797 6.68858 15.5581C6.05315 15.1365 5.55644 14.5365 5.26083 13.8336C4.96523 13.1306 4.8839 12.356 5.02706 11.607C5.17022 10.858 5.53149 10.1679 6.0655 9.62354V3.47542C6.0655 2.74159 6.35702 2.03781 6.87592 1.51891C7.39482 1.00001 8.0986 0.708496 8.83243 0.708496C9.56627 0.708496 10.27 1.00001 10.7889 1.51891C11.3078 2.03781 11.5994 2.74159 11.5994 3.47542V9.62354C12.1334 10.1679 12.4946 10.858 12.6378 11.607C12.781 12.356 12.6996 13.1306 12.404 13.8336C12.1084 14.5365 11.6117 15.1365 10.9763 15.5581C10.3408 15.9797 9.59501 16.2041 8.83243 16.2033ZM8.83243 1.81527C8.39227 1.81571 7.97025 1.99076 7.65901 2.302C7.34776 2.61325 7.17271 3.03526 7.17227 3.47542V10.1066L6.98855 10.2721C6.57068 10.6456 6.27608 11.1372 6.14374 11.6818C6.01141 12.2264 6.04758 12.7983 6.24747 13.3219C6.44736 13.8455 6.80154 14.2961 7.26314 14.614C7.72473 14.9318 8.27197 15.102 8.83243 15.102C9.39289 15.102 9.94013 14.9318 10.4017 14.614C10.8633 14.2961 11.2175 13.8455 11.4174 13.3219C11.6173 12.7983 11.6535 12.2264 11.5211 11.6818C11.3888 11.1372 11.0942 10.6456 10.6763 10.2721L10.4926 10.1066V3.47542C10.4921 3.03526 10.3171 2.61325 10.0059 2.302C9.69461 1.99076 9.2726 1.81571 8.83243 1.81527Z" fill="white"/>
</g>
</svg>
