<svg width="17" height="17" viewBox="0 0 17 17" fill="none" xmlns="http://www.w3.org/2000/svg">
<path fill-rule="evenodd" clip-rule="evenodd" d="M10.94 3.54845C11.4021 3.87778 11.7682 4.33028 11.9988 4.85732C12.2484 5.40526 12.3503 6.01202 12.2936 6.61414C12.2371 7.21634 12.0242 7.79182 11.6772 8.28056L11.4578 8.58788H13.794C14.0327 8.58788 14.2522 8.71873 14.3658 8.92872L16.6827 13.2136C16.9169 13.6467 16.6033 14.1728 16.111 14.1728H8.92509C8.64895 14.1728 8.42509 13.9489 8.42509 13.6728C8.42509 13.3966 8.64895 13.1728 8.92509 13.1728H15.5238L13.5854 9.58788H10.744L9.37212 11.5099C9.31543 11.5894 9.22529 11.6363 9.12937 11.6363C9.03353 11.6363 8.94339 11.5894 8.88669 11.5099L7.51479 9.58788H4.26481L2.32637 13.1728H5.20634C5.48249 13.1728 5.70634 13.3966 5.70634 13.6728C5.70634 13.9489 5.48249 14.1728 5.20634 14.1728H1.73923C1.24689 14.1728 0.933284 13.6467 1.16746 13.2136L3.48441 8.92872C3.59796 8.71873 3.81746 8.58788 4.05618 8.58788H6.80101L6.58165 8.28056C6.2346 7.79189 6.0216 7.21641 5.96498 6.61421C5.90835 6.01202 6.01011 5.40528 6.25965 4.85732C6.52572 4.25181 6.96876 3.74644 7.52721 3.41139C8.0856 3.0764 8.73169 2.92837 9.37571 2.988C9.93706 3.02535 10.4778 3.21905 10.94 3.54845ZM8.01215 7.37345C8.30845 7.67786 8.71025 7.84887 9.12925 7.84887L9.12923 7.84889C9.54811 7.84839 9.94964 7.67725 10.2459 7.37297C10.542 7.06863 10.7086 6.65607 10.7091 6.22572C10.7091 5.79523 10.5426 5.38239 10.2463 5.07798C9.95006 4.77358 9.54825 4.60257 9.12925 4.60257C8.71025 4.60257 8.30843 4.77358 8.01215 5.07798C7.71587 5.3824 7.54943 5.79523 7.54943 6.22572C7.54943 6.65621 7.71588 7.06905 8.01215 7.37345ZM10.2582 6.22475C10.2582 6.86503 9.75296 7.38414 9.12977 7.38414C8.50657 7.38414 8.00132 6.86503 8.00132 6.22475C8.00132 5.58446 8.50657 5.06535 9.12977 5.06535C9.75296 5.06535 10.2582 5.58446 10.2582 6.22475ZM6.74835 13.1313C6.47221 13.1313 6.24835 13.3552 6.24835 13.6313C6.24835 13.9075 6.47221 14.1313 6.74835 14.1313H7.3846C7.66074 14.1313 7.8846 13.9075 7.8846 13.6313C7.8846 13.3552 7.66074 13.1313 7.3846 13.1313H6.74835Z" fill="#9C9C9C"/>
</svg>
